<svg width="357" height="76" viewBox="0 0 357 76" fill="none" xmlns="http://www.w3.org/2000/svg">
<path fill-rule="evenodd" clip-rule="evenodd" d="M20 0C8.95431 0 0 8.95431 0 20V56C0 67.0457 8.9543 76 20 76H337C348.046 76 357 67.0457 357 56V20C357 8.95431 348.046 0 337 0H20Z" fill="url(#paint0_radial_10_766)"/>
<path fill-rule="evenodd" clip-rule="evenodd" d="M20 0C8.95431 0 0 8.95431 0 20V56C0 67.0457 8.9543 76 20 76H337C348.046 76 357 67.0457 357 56V20C357 8.95431 348.046 0 337 0H20Z" fill="url(#paint1_radial_10_766)"/>
<path fill-rule="evenodd" clip-rule="evenodd" d="M20 0C8.95431 0 0 8.95431 0 20V56C0 67.0457 8.9543 76 20 76H337C348.046 76 357 67.0457 357 56V20C357 8.95431 348.046 0 337 0H20Z" fill="url(#paint2_radial_10_766)"/>
<path fill-rule="evenodd" clip-rule="evenodd" d="M20 0C8.95431 0 0 8.95431 0 20V56C0 67.0457 8.9543 76 20 76H337C348.046 76 357 67.0457 357 56V20C357 8.95431 348.046 0 337 0H20Z" fill="url(#paint3_radial_10_766)"/>
<path fill-rule="evenodd" clip-rule="evenodd" d="M20 0C8.95431 0 0 8.95431 0 20V56C0 67.0457 8.9543 76 20 76H337C348.046 76 357 67.0457 357 56V20C357 8.95431 348.046 0 337 0H20Z" fill="url(#paint4_radial_10_766)"/>
<path fill-rule="evenodd" clip-rule="evenodd" d="M20 0C8.95431 0 0 8.95431 0 20V56C0 67.0457 8.9543 76 20 76H337C348.046 76 357 67.0457 357 56V20C357 8.95431 348.046 0 337 0H20Z" fill="url(#paint5_radial_10_766)"/>
<path fill-rule="evenodd" clip-rule="evenodd" d="M20 0C8.95431 0 0 8.95431 0 20V56C0 67.0457 8.9543 76 20 76H337C348.046 76 357 67.0457 357 56V20C357 8.95431 348.046 0 337 0H20Z" fill="url(#paint6_radial_10_766)"/>
<path fill-rule="evenodd" clip-rule="evenodd" d="M20 0C8.95431 0 0 8.95431 0 20V56C0 67.0457 8.9543 76 20 76H337C348.046 76 357 67.0457 357 56V20C357 8.95431 348.046 0 337 0H20Z" fill="url(#paint7_radial_10_766)"/>
<path fill-rule="evenodd" clip-rule="evenodd" d="M20 0C8.95431 0 0 8.95431 0 20V56C0 67.0457 8.9543 76 20 76H337C348.046 76 357 67.0457 357 56V20C357 8.95431 348.046 0 337 0H20Z" fill="url(#paint8_radial_10_766)" fill-opacity="0.2"/>
<defs>
<radialGradient id="paint0_radial_10_766" cx="0" cy="0" r="1" gradientUnits="userSpaceOnUse" gradientTransform="translate(185.751 45.2953) rotate(-26.6264) scale(261.773 211.639)">
<stop offset="0.515264" stop-color="#0193CC" stop-opacity="0"/>
<stop offset="0.602083" stop-color="#0193CC"/>
</radialGradient>
<radialGradient id="paint1_radial_10_766" cx="0" cy="0" r="1" gradientUnits="userSpaceOnUse" gradientTransform="translate(117.993 102.153) rotate(-43.2087) scale(217.556 144.011)">
<stop stop-color="#6832DA"/>
<stop offset="1" stop-color="#6832DA" stop-opacity="0"/>
</radialGradient>
<radialGradient id="paint2_radial_10_766" cx="0" cy="0" r="1" gradientUnits="userSpaceOnUse" gradientTransform="translate(119.39 77.7278) rotate(-30.0784) scale(154.991 78.9959)">
<stop stop-color="#EE3683"/>
<stop offset="1" stop-color="#EE3683" stop-opacity="0"/>
</radialGradient>
<radialGradient id="paint3_radial_10_766" cx="0" cy="0" r="1" gradientUnits="userSpaceOnUse" gradientTransform="translate(155.714 126.177) rotate(-53.9685) scale(152.004 95.5043)">
<stop stop-color="#0193CC"/>
<stop offset="0.220161" stop-color="#0192CB" stop-opacity="0.56"/>
<stop offset="0.700569" stop-color="#0193CC" stop-opacity="0"/>
</radialGradient>
<radialGradient id="paint4_radial_10_766" cx="0" cy="0" r="1" gradientUnits="userSpaceOnUse" gradientTransform="translate(372.262 -7.15815) rotate(-147.457) scale(212.135 82.8417)">
<stop stop-color="#01CCCC"/>
<stop offset="0.318993" stop-color="#01CCCC" stop-opacity="0.61"/>
<stop offset="0.691526" stop-color="#01CCCC" stop-opacity="0"/>
</radialGradient>
<radialGradient id="paint5_radial_10_766" cx="0" cy="0" r="1" gradientUnits="userSpaceOnUse" gradientTransform="translate(180.862 -27.1783) rotate(0.374619) scale(183.721 42.5669)">
<stop stop-opacity="0.72"/>
<stop offset="0.446692" stop-opacity="0"/>
</radialGradient>
<radialGradient id="paint6_radial_10_766" cx="0" cy="0" r="1" gradientUnits="userSpaceOnUse" gradientTransform="translate(299.613 59.3095) rotate(-76.5407) scale(114.045 91.2276)">
<stop stop-opacity="0.72"/>
<stop offset="0.489507" stop-opacity="0"/>
</radialGradient>
<radialGradient id="paint7_radial_10_766" cx="0" cy="0" r="1" gradientUnits="userSpaceOnUse" gradientTransform="translate(229.061 21.6709) rotate(145.461) scale(228.114 216.647)">
<stop offset="0.581334" stop-color="#01CCCC" stop-opacity="0"/>
<stop offset="0.740077" stop-color="#01CCCC"/>
</radialGradient>
<radialGradient id="paint8_radial_10_766" cx="0" cy="0" r="1" gradientUnits="userSpaceOnUse" gradientTransform="translate(206.009 32.4821) rotate(121.421) scale(129.972 185.369)">
<stop stop-color="#531958"/>
<stop offset="1" stop-color="#7E287A"/>
</radialGradient>
</defs>
</svg>
