<svg width="1012" height="1144" viewBox="0 0 1012 1144" fill="none" xmlns="http://www.w3.org/2000/svg">
<path d="M132.028 -12.0791C220.679 -56.8 353.44 -85.7699 175.282 156.118C-47.4162 458.477 136.805 425.176 283.364 382.223C429.923 339.27 474.423 492.788 440.214 563.457C406.005 634.125 455.414 722.682 609.549 716.056C763.685 709.43 724.443 797.475 745.477 900.809C762.305 983.476 847.8 981.479 888.444 970.146C920.288 957.834 980.32 950.038 965.698 1017.35C951.077 1084.66 1023.21 1112.01 1061.1 1117.27" stroke="#0193CC" stroke-opacity="0.4"/>
<path d="M334.216 -206.761C535.013 -188.306 872.988 -110.905 618.507 51.0496C364.027 213.005 591.249 206.587 736.67 183.134C875.998 187.728 1100.99 222.446 886.329 324.574C618.003 452.233 727.946 553.768 935.081 523.408C1100.79 499.12 1077.44 650.387 1045.05 729.057C1028.1 836.091 1024.12 1020.81 1143.79 903.431C1263.46 786.049 1327.92 710.897 1345.19 687.994" stroke="#0193CC" stroke-width="3"/>
<path d="M115.353 -24.4618C205.115 -66.5522 338.818 -92.9069 171.931 139.356C-37.6088 429.184 139.966 400.445 274.333 363.487C402.603 330.382 456.258 476.334 430.484 542.508C404.419 610.016 462.628 696.058 600.094 694.71C734.988 694.576 702.704 783.247 732.867 880.245C756.997 957.843 837.837 963.202 875.242 956.182C904.95 949.574 962.307 950.987 954.069 1009.5C945.831 1068.02 1018.08 1090.54 1055.24 1094.48" stroke="#0193CC" stroke-opacity="0.428571" stroke-width="1.09524"/>
<path d="M125.502 -33.8558C215.829 -73.3766 349.626 -97.2103 195 125.537C-0.147175 402.972 169.602 378.663 290.849 347.598C399.905 324.237 462.313 462.579 445.145 524.276C427.395 588.644 494.018 672.128 613.811 675.946C728.461 682.193 703.328 771.512 742.406 862.149C773.668 934.658 849.297 947.313 883.204 944.577C910.578 943.65 964.873 954.23 963.066 1003.95C961.258 1053.68 1033.14 1071.32 1069.3 1073.92" stroke="#0193CC" stroke-opacity="0.457143" stroke-width="1.19048"/>
<path d="M136.127 -43.1942C227.019 -80.1453 360.91 -101.458 218.544 111.774C37.7904 376.816 199.713 356.936 307.842 331.764C397.683 318.147 468.843 448.879 460.281 506.1C450.846 567.328 525.884 648.253 628.004 657.238C722.41 669.866 704.428 759.832 752.421 844.108C790.815 911.529 861.233 931.479 891.643 933.027C916.682 937.782 967.915 957.528 972.538 998.461C977.161 1039.4 1048.67 1052.15 1083.85 1053.41" stroke="#0193CC" stroke-opacity="0.485714" stroke-width="1.28571"/>
<path d="M146.751 -52.5294C238.208 -86.911 372.194 -105.703 242.089 98.0145C75.7276 350.663 229.824 335.213 324.834 315.933C395.46 312.061 475.372 435.183 475.417 487.928C474.298 546.014 557.749 624.382 642.196 638.534C716.358 657.541 705.527 748.155 762.436 826.071C807.962 888.404 873.169 915.649 900.081 921.48C922.785 931.917 970.957 960.829 982.01 992.971C993.063 1025.11 1064.2 1032.99 1098.39 1032.91" stroke="#0193CC" stroke-opacity="0.514286" stroke-width="1.38095"/>
<path d="M157.375 -61.8611C249.397 -93.6731 383.477 -109.944 265.632 84.2582C113.665 324.513 259.935 313.493 341.826 300.106C393.237 305.978 481.902 421.49 490.553 469.758C497.749 524.704 589.614 600.515 656.389 619.832C710.307 645.22 706.627 736.482 772.45 808.037C825.109 865.282 885.104 899.822 908.518 909.936C928.888 926.056 973.998 964.133 991.482 987.485C1008.97 1010.84 1079.73 1013.83 1112.93 1012.41" stroke="#0193CC" stroke-opacity="0.542857" stroke-width="1.47619"/>
<path d="M167.998 -71.1886C260.585 -100.431 394.76 -114.181 289.176 70.5062C151.601 298.368 290.046 291.778 358.817 284.283C391.014 299.899 488.431 407.801 505.688 451.593C521.2 503.399 621.479 576.651 670.581 601.135C704.255 632.904 707.726 724.813 782.464 790.008C842.255 842.164 897.038 883.999 916.956 898.397C934.991 920.199 977.039 967.442 1000.95 982.003C1024.87 996.564 1095.26 994.675 1127.47 991.91" stroke="#0193CC" stroke-opacity="0.571429" stroke-width="1.57143"/>
<path d="M178.621 -80.5112C271.773 -107.184 406.042 -118.413 312.718 56.7591C189.537 272.227 320.155 270.067 375.808 268.465C388.79 293.826 494.959 394.117 520.823 433.433C544.65 482.098 653.343 552.793 684.772 582.443C698.202 620.592 708.824 713.148 792.478 771.983C859.401 819.051 908.972 868.181 925.393 886.863C941.093 914.346 980.079 970.756 1010.42 976.526C1040.77 982.295 1110.79 975.525 1142.01 971.419" stroke="#0193CC" stroke-opacity="0.6" stroke-width="1.66667"/>
<path d="M189.243 -89.8278C282.96 -113.931 417.324 -122.639 336.26 43.018C227.472 246.093 350.264 248.363 392.798 252.653C386.565 287.758 501.487 380.439 535.957 415.279C568.1 460.803 685.207 528.94 698.963 563.757C692.148 608.286 709.921 701.49 802.49 753.964C876.546 795.944 920.906 852.369 933.829 875.335C947.194 908.5 983.119 974.075 1019.89 971.054C1056.67 968.033 1126.32 956.381 1156.55 950.933" stroke="#0193CC" stroke-opacity="0.628571" stroke-width="1.7619"/>
<path d="M199.865 -99.1373C294.147 -120.671 428.605 -126.858 359.802 29.284C265.406 219.966 380.373 226.665 409.787 236.848C384.339 281.697 508.013 366.768 551.09 397.132C591.548 439.516 717.069 505.095 713.153 545.078C686.094 595.987 711.018 689.839 812.502 735.953C893.69 772.844 932.838 836.565 942.264 863.814C953.295 902.661 986.158 977.402 1029.36 965.59C1072.57 953.778 1141.85 937.245 1171.09 930.455" stroke="#0193CC" stroke-opacity="0.657143" stroke-width="1.85714"/>
<path d="M210.485 -108.438C305.332 -127.402 439.885 -131.068 383.342 15.5588C303.34 193.847 410.48 204.977 426.776 221.051C382.113 275.646 514.539 353.106 566.223 378.994C614.996 418.237 748.931 481.258 727.341 526.408C680.039 583.697 712.114 678.197 822.514 717.95C910.833 749.753 944.77 820.769 950.698 852.301C959.394 896.83 989.196 980.738 1038.83 960.135C1088.47 939.532 1157.38 918.117 1185.63 909.985" stroke="#0193CC" stroke-opacity="0.685714" stroke-width="1.95238"/>
<path d="M221.105 -117.728C316.517 -134.122 451.163 -135.268 406.881 1.84434C341.272 167.739 440.586 183.299 443.763 205.266C379.885 269.605 521.064 339.455 581.354 360.867C638.443 396.969 780.791 457.432 741.529 507.748C673.983 571.418 713.208 666.565 832.523 699.958C927.975 726.672 956.7 804.984 959.131 840.8C965.493 891.011 992.232 984.084 1048.3 954.69C1104.36 925.296 1172.9 899 1200.16 889.526" stroke="#0193CC" stroke-opacity="0.714286" stroke-width="2.04762"/>
<path d="M231.723 -127.004C327.699 -140.829 462.44 -139.453 430.419 -11.8563C379.203 141.645 470.691 161.635 460.749 189.494C377.656 263.577 527.587 325.817 596.484 342.753C661.888 375.714 812.65 433.62 755.715 489.102C667.925 559.153 714.301 654.947 842.532 681.98C945.116 703.606 968.629 789.212 967.563 829.312C971.59 885.205 995.268 987.444 1057.76 949.259C1120.26 911.074 1188.43 879.896 1214.7 869.081" stroke="#0193CC" stroke-opacity="0.742857" stroke-width="2.14286"/>
<path d="M242.338 -136.263C338.88 -147.518 473.715 -143.621 453.954 -25.5395C417.131 115.569 500.793 139.988 477.732 173.74C375.425 257.568 534.108 312.197 611.611 324.657C685.331 354.478 844.507 409.825 769.9 470.474C661.865 546.905 715.392 643.347 852.538 664.019C962.254 680.557 980.556 773.458 975.992 817.842C977.685 879.417 998.301 990.822 1067.23 943.846C1136.15 896.87 1203.95 860.811 1229.23 848.653" stroke="#0193CC" stroke-opacity="0.771429" stroke-width="2.2381"/>
<path d="M252.951 -145.498C350.058 -154.184 484.988 -147.766 477.487 -39.1995C455.057 89.5154 530.893 118.365 494.713 158.009C373.191 251.581 540.627 298.6 626.736 306.584C708.771 333.264 876.361 386.054 784.081 451.869C655.802 534.68 716.481 631.77 862.542 646.082C979.39 657.531 992.48 757.727 984.419 806.395C983.777 873.651 1001.33 994.223 1076.69 938.456C1152.04 882.688 1219.47 841.748 1243.76 828.249" stroke="#0193CC" stroke-opacity="0.8" stroke-width="2.33333"/>
<path d="M263.561 -154.702C361.233 -160.818 496.257 -151.88 501.017 -52.8283C492.98 63.4932 560.99 96.7725 511.691 142.309C370.954 245.626 547.142 285.035 641.858 288.542C732.208 312.081 908.212 362.314 798.259 433.295C649.736 522.487 717.566 620.224 872.542 628.175C996.523 634.536 1004.4 742.028 992.843 794.979C989.866 867.917 1004.36 997.655 1086.15 933.097C1167.93 868.539 1234.98 822.717 1258.29 807.875" stroke="#0193CC" stroke-opacity="0.828571" stroke-width="2.42857"/>
<path d="M274.166 -163.863C372.403 -167.41 507.522 -155.95 524.542 -66.4138C530.898 37.5143 591.082 75.2236 528.664 126.653C368.712 239.714 553.653 271.512 656.975 270.544C755.64 290.942 940.058 338.617 812.433 414.765C643.666 510.337 718.646 608.722 882.537 610.312C1013.65 611.585 1016.32 726.372 1001.26 783.606C995.95 862.227 1007.38 1001.13 1095.6 927.781C1183.82 854.432 1250.5 803.728 1272.81 787.545" stroke="#0193CC" stroke-opacity="0.857143" stroke-width="2.52381"/>
<path d="M284.764 -172.962C383.566 -173.938 518.779 -159.958 548.059 -79.9365C568.809 11.5983 621.167 53.7374 545.63 111.059C366.463 233.864 560.156 258.053 672.084 252.608C779.065 269.866 971.898 314.983 826.599 396.297C637.588 498.25 719.719 597.282 892.526 592.512C1030.77 588.696 1028.23 710.778 1009.67 772.296C1002.03 856.599 1010.4 1004.67 1105.04 922.528C1199.69 840.388 1266 784.803 1287.32 767.278" stroke="#0193CC" stroke-opacity="0.885714" stroke-width="2.61905"/>
<path d="M295.352 -181.965C394.718 -180.372 530.026 -163.871 571.566 -93.3645C606.709 -14.223 651.241 32.3461 562.585 95.5602C364.204 228.11 566.649 244.688 687.184 234.767C802.48 248.884 1003.73 291.443 840.755 377.924C631.5 486.257 720.782 585.937 902.504 574.807C1047.88 565.902 1040.12 695.28 1018.07 761.081C1008.09 851.066 1013.4 1008.3 1114.48 917.37C1215.56 826.439 1281.5 765.973 1301.83 747.106" stroke="#0193CC" stroke-opacity="0.914286" stroke-width="2.71429"/>
<path d="M305.922 -190.817C405.854 -186.655 541.256 -167.633 595.057 -106.641C644.593 -39.893 681.298 11.1059 579.523 80.2125C361.927 222.507 573.125 231.474 702.266 217.077C825.878 228.054 1035.54 268.055 854.894 359.702C625.395 474.416 721.828 574.743 912.465 557.252C1064.97 543.26 1052.01 679.932 1026.46 750.017C1014.14 845.684 1016.39 1012.09 1123.9 912.363C1231.41 812.641 1296.97 747.293 1316.32 727.085" stroke="#0193CC" stroke-opacity="0.942857" stroke-width="2.80952"/>
<path d="M316.464 -199.415C416.961 -192.682 552.457 -171.139 618.519 -119.663C682.448 -65.3083 711.327 -9.87937 596.433 65.1197C359.622 217.158 579.572 218.516 717.32 199.643C849.247 207.479 1067.32 244.922 869.004 341.735C619.261 462.829 722.845 563.804 922.397 539.953C1082.04 520.872 1063.86 664.84 1034.81 739.209C1020.16 840.557 1019.35 1016.12 1133.29 907.611C1247.23 799.098 1312.42 728.869 1330.78 707.318" stroke="#0193CC" stroke-opacity="0.971429" stroke-width="2.90476"/>
</svg>
