<svg width="666" height="1216" viewBox="0 0 666 1216" fill="none" xmlns="http://www.w3.org/2000/svg">
<path d="M2.1747 766.372C17.6784 820.32 69.4214 900.227 152.364 788.275C256.042 648.335 360.403 707.759 299.606 832.884C238.809 958.009 257.005 1127.8 364.938 994.526C472.871 861.25 634.962 1060.72 573.177 1129.07" stroke="#0193CC" stroke-width="3"/>
<path d="M-133.181 137.681C36.7816 166.348 54.1701 212.05 -2.81377 349.133C-59.7976 486.216 75.068 589.83 251.209 493.639C427.351 397.447 389.722 578.564 338.596 671.932C287.471 765.299 584.273 558.56 462.999 805.322" stroke="#0E78AF"/>
<path d="M-12.2836 746.128C9.37551 795.798 58.7031 874.562 140.023 776.666C241.639 652.529 347.703 713.103 293.188 823.48C238.672 933.858 254.48 1104.51 359.434 984.781C464.389 865.053 623.783 1043.48 563.042 1120.42" stroke="#0292CB" stroke-width="2.90476"/>
<path d="M-22.6277 720.401C5.36732 766.072 52.3491 843.629 131.503 759.668C230.45 651.183 338.212 713.003 290.558 808.952C242.905 904.902 256.295 1076.38 357.76 970.018C459.224 863.655 616.861 1021.02 556.781 1106.63" stroke="#0290C9" stroke-width="2.80952"/>
<path d="M-33.1145 694.454C1.3879 736.412 46.0953 812.701 122.543 742.538C218.218 649.534 327.671 712.697 287.45 794.556C247.228 876.414 258.174 1048.7 355.642 955.496C453.111 862.297 609.929 998.622 550.124 1092.95" stroke="#038FC8" stroke-width="2.71429"/>
<path d="M-43.6763 668.225C-2.50412 706.76 40.0017 781.719 113.209 725.202C205.017 647.493 316.15 712.095 283.918 780.216C251.686 848.337 260.16 1021.39 353.134 941.142C446.109 860.892 603.044 976.216 543.128 1079.31" stroke="#038EC6" stroke-width="2.61905"/>
<path d="M-52.0952 639.502C-4.10014 674.91 36.2786 748.482 105.715 705.441C193.067 642.821 305.866 708.961 282.171 763.715C258.476 818.47 264.449 992.271 352.438 924.739C440.428 857.206 598.415 951.604 537.999 1063.49" stroke="#048DC5" stroke-width="2.52381"/>
<path d="M-58.7143 608.898C-3.75264 641.48 34.5747 713.61 99.7162 683.861C182.029 636.107 296.477 703.879 281.854 745.655C267.231 787.431 270.676 961.949 353.197 906.889C435.717 851.829 595.688 925.404 534.381 1046.1" stroke="#058BC4" stroke-width="2.42857"/>
<path d="M-65.3333 578.295C-3.27093 608.355 33.0822 678.991 93.411 662.331C170.111 629.202 286.187 698.705 281.158 727.907C276.129 757.108 277.018 932.311 353.595 889.464C430.171 846.617 593.053 899.502 530.464 1029.02" stroke="#058AC2" stroke-width="2.33333"/>
<path d="M-71.9524 547.691C-2.66479 575.539 31.7926 644.631 86.7973 640.844C157.317 622.082 274.997 693.412 280.072 710.459C285.146 727.506 283.453 903.362 353.618 872.455C423.784 841.547 590.498 873.904 526.237 1012.24" stroke="#0689C1" stroke-width="2.2381"/>
<path d="M-78.5714 517.088C-1.94388 543.037 30.6973 610.537 79.8738 619.391C143.655 614.721 262.912 687.974 278.586 693.302C294.26 698.63 289.957 875.108 353.253 855.852C416.55 836.596 588.014 848.615 521.687 995.745" stroke="#0787C0" stroke-width="2.14286"/>
<path d="M-85.1905 486.484C-1.11824 510.851 29.7875 576.715 72.6389 597.962C129.131 607.092 249.935 682.364 276.691 676.424C303.447 670.484 296.507 847.55 352.485 839.644C408.464 831.737 585.588 823.64 516.805 979.536" stroke="#0786BE" stroke-width="2.04762"/>
<path d="M-91.8095 455.881C-0.197724 478.986 29.0543 543.172 65.0917 576.55C113.755 599.17 236.072 676.557 274.377 659.814C312.683 643.071 303.079 820.693 351.301 823.821C399.523 826.948 583.21 798.984 511.579 963.603" stroke="#0885BD" stroke-width="1.95238"/>
<path d="M-98.4286 425.277C0.807448 447.444 28.4885 509.913 57.2312 555.144C97.535 590.93 221.327 670.526 271.636 643.461C321.945 616.395 309.651 794.537 349.688 808.371C389.724 822.204 580.868 774.651 505.999 947.937" stroke="#0884BB" stroke-width="1.85714"/>
<path d="M-105.048 394.674C1.8872 416.229 28.081 476.945 49.0569 533.735C80.4807 582.346 205.708 664.246 268.458 627.352C331.209 590.458 316.2 769.085 347.631 793.283C379.063 817.481 578.55 750.645 500.054 932.531" stroke="#0982BA" stroke-width="1.7619"/>
<path d="M-111.667 364.071C3.03116 385.343 27.8221 444.271 40.5682 512.316C62.6023 573.393 189.221 657.691 264.836 611.476C340.451 565.262 322.7 744.336 345.119 778.545C367.538 812.753 576.246 726.97 493.734 917.375" stroke="#0A81B9" stroke-width="1.66667"/>
<path d="M-118.286 333.467C4.2291 354.788 27.7024 411.898 31.7652 490.876C43.911 564.048 171.874 650.835 260.761 595.821C349.648 540.807 329.13 720.292 342.14 764.144C355.149 807.997 573.942 703.628 487.029 902.46" stroke="#0A80B7" stroke-width="1.57143"/>
<path d="M-124.905 302.864C5.47048 324.567 27.712 379.83 22.6478 469.406C24.418 554.284 153.676 643.654 256.226 580.373C358.775 517.093 335.466 696.951 338.68 750.069C341.893 803.186 571.626 680.623 479.929 887.777" stroke="#0B7EB6" stroke-width="1.47619"/>
<path d="M-131.524 272.26C6.74497 294.681 27.8412 348.071 13.2165 447.898C4.13596 544.08 134.635 636.122 251.222 565.121C367.809 494.121 341.683 674.312 334.728 736.305C327.772 798.298 569.288 657.957 472.425 873.316" stroke="#0C7DB5" stroke-width="1.38095"/>
<path d="M-138.143 241.657C8.04191 265.131 28.0798 316.627 3.47179 426.342C-16.9225 533.411 114.761 628.214 245.743 550.051C376.726 471.889 347.759 652.373 330.273 722.84C312.786 793.306 566.914 635.633 464.507 859.066" stroke="#0C7CB3" stroke-width="1.28571"/>
<path d="M-138.916 207.882C15.1967 232.748 34.2636 282.329 -0.73963 401.558C-32.8978 519.081 99.9102 616.735 245.628 531.979C391.347 447.223 359.516 627.961 331.149 706.488C302.782 785.015 570.337 610.48 462.011 841.848" stroke="#0D7BB2" stroke-width="1.19048"/>
<path d="M-136.216 172.624C25.8262 199.221 44.0099 246.869 -1.78919 375.225C-46.1484 502.758 87.7214 603.349 248.499 512.58C409.276 421.811 374.557 602.76 334.973 688.924C295.388 775.088 577.174 584.189 462.558 823.337" stroke="#0D79B0" stroke-width="1.09524"/>
</svg>
