<svg width="803" height="816" viewBox="0 0 803 816" fill="none" xmlns="http://www.w3.org/2000/svg">
<g clip-path="url(#clip0_122_2)">
<path d="M176.823 6.93024C166.302 26.43 151.64 49.0551 130.123 79.222C127.272 83.2986 124.489 87.1714 124.014 87.9188C123.606 88.5982 121.977 90.9083 120.416 93.0145C116.751 98.1103 102.021 120.26 98.6271 125.763C97.1338 128.141 93.8756 133.441 91.3641 137.517C82.2685 152.329 75.4806 164.967 63.0589 190.581C53.9632 209.469 51.6554 214.837 47.6505 226.251C44.1209 236.579 43.7136 237.938 42.4918 243.985C39.5051 258.864 39.7767 269.531 43.3742 279.315C53.2166 305.609 89.7351 312.132 154.695 299.291C168.202 296.573 194.268 290.186 210.083 285.702C236.352 278.16 246.194 276.394 262.01 276.394C274.092 276.326 282.645 277.549 292.895 280.674C304.298 284.207 318.01 291.885 324.526 298.339C326.562 300.378 335.319 312.064 335.319 312.811C335.319 312.947 336.812 315.597 338.577 318.722C349.912 338.426 356.361 363.089 356.361 386.19C356.361 398.42 355.071 406.777 351.677 416.901C346.926 430.897 346.654 432.799 346.315 451.144C345.772 481.922 345.976 484.776 349.369 495.307C359.958 528.26 391.726 552.108 437.136 561.212C456.346 565.017 463.88 565.629 493.475 565.425C529.926 565.289 542.483 566.308 557.892 570.792C565.358 572.967 575.268 577.519 576.694 579.421C578.459 581.799 583.074 591.583 584.771 596.543C589.048 609.112 590.405 615.635 596.65 654.974C601.402 685.141 606.968 706.883 613.212 719.52C614.434 721.966 615.995 726.043 616.674 728.693C618.235 734.808 623.462 746.562 626.856 751.794C630.725 757.637 639.345 766.401 645.251 770.478C669.076 786.988 707.359 790.657 742.181 779.718C754.739 775.71 757.929 775.166 769.129 774.758L779.718 774.351L782.772 776.661C791.868 783.523 796.28 795.413 795.126 809.885C794.855 813.826 794.922 816 795.33 816C796.823 816 797.366 802.615 796.144 795.889C795.126 790.453 791.596 783.047 788.135 779.175L785.284 775.981L788.203 777.001C791.8 778.223 795.33 782.572 798.52 789.638C801.371 795.889 801.71 797.384 802.253 807.847L802.796 816.34L802.864 806.42C803 795.957 802.185 791.812 798.927 786.309C798.181 785.086 797.909 784.067 798.249 784.067C798.52 784.067 799.742 785.969 800.896 788.279C802.932 792.288 803 792.356 803 790.114C803 787.124 799.335 782.232 793.836 777.884C780.125 766.945 772.862 763.344 757.929 760.218C752.431 759.063 747.272 758.656 731.728 758.248C718.424 757.908 710.618 757.365 706.613 756.617C689.168 753.152 675.66 748.26 662.153 740.379C643.147 729.304 626.788 710.688 617.489 689.625C610.701 674.202 610.294 672.572 608.8 655.382C608.054 646.821 607.578 639.687 607.714 639.551C607.85 639.415 608.529 640.774 609.208 642.541C625.77 686.976 651.224 716.191 689.304 734.876C705.595 742.825 719.238 747.037 736.751 749.483C747.34 750.978 748.765 751.318 757.725 754.307C775.645 760.286 792.615 771.361 801.167 782.708L803 785.086V783.251C803 780.534 793.361 771.157 784.944 765.586C770.147 755.802 753.245 749.687 734.782 747.377C701.726 743.233 664.121 722.714 642.128 696.759C632.422 685.277 626.381 675.833 618.982 660.749C614.298 651.101 605.474 628.544 605.474 626.234C605.474 623.177 601.266 608.433 598.686 602.59C597.125 599.057 595.021 593.417 593.935 590.088C589.183 574.937 585.586 565.697 580.631 556.049C567.802 531.113 547.778 518 517.232 514.399C487.977 510.934 463.676 502.509 439.987 487.766C428.991 480.903 420.777 474.245 411.003 464.393C391.726 445.029 380.865 425.054 378.014 403.788C377.403 399.099 377.403 395.77 378.082 388.432C378.625 382.929 378.761 376.542 378.489 372.941C376.114 341.076 355.886 299.698 329.549 272.521C311.765 254.176 294.184 243.713 274.228 239.365C265.336 237.462 251.625 237.734 241.986 240.044C196.372 250.847 157.206 253.157 135.96 246.227C127.543 243.509 122.452 240.655 117.158 235.696C111.66 230.532 108.13 224.553 106.094 216.739C104.668 211.372 104.533 197.851 105.822 190.241C111.185 158.444 130.937 117.542 168.27 61.2849C174.854 51.2973 183.136 38.6598 186.529 33.1564C193.249 22.4213 204.992 1.6986 204.992 0.543567C204.992 -1.35885 202.956 1.08711 200.037 6.52258C192.435 20.5869 184.493 33.4282 169.017 56.7327C136.435 105.924 118.583 139.556 108.741 170.606C103.718 186.233 101.885 204.17 104.125 215.381C108.334 236.443 124.896 248.469 153.744 251.391C173.225 253.429 205.603 250.1 237.574 242.762C255.562 238.685 268.73 238.889 282.849 243.577C299.343 249.08 313.055 258.253 328.599 274.219C347.808 293.991 363.556 320.965 371.837 348.21C375.842 361.323 377.471 373.621 376.657 383.88C375.027 403.516 377.132 416.153 384.802 431.78C398.921 460.724 427.633 486.543 462.726 501.83C478.338 508.624 495.104 513.176 513.771 515.69C539.225 519.019 552.733 524.727 564.883 537.16C575.336 547.827 581.92 559.921 589.455 582.275L592.577 591.447L589.93 588.39C588.437 586.691 587.079 584.653 586.808 583.77C585.993 580.644 579.137 566.784 576.287 562.503C574.657 560.125 570.992 555.845 568.209 552.991C554.226 538.927 534.677 531.997 503.996 530.298C465.713 528.124 432.588 517.049 406.93 497.753C399.532 492.182 387.721 480.564 382.766 473.973C365.117 450.601 359.483 426.888 365.524 401.545C368.647 388.568 368.172 371.922 364.099 354.868C358.805 332.243 348.487 310.977 333.622 291.817C325.341 281.218 310.068 267.765 300.022 262.329C282.849 253.089 268.187 249.488 250.471 250.235C245.244 250.439 238.728 251.187 235.198 252.002C231.872 252.749 221.147 255.195 211.441 257.437C180.488 264.504 160.193 267.289 139.15 267.289C124.149 267.289 117.226 266.406 107.248 263.145C92.4502 258.321 83.0151 248.673 79.6891 234.676C78.3315 228.969 78.1279 217.079 79.3497 209.945C83.2188 186.912 94.0793 161.162 115.868 122.978C121.977 112.31 139.49 85.201 151.029 68.6228C167.252 45.2503 181.031 23.3046 189.923 6.79436C191.213 4.3484 192.571 2.10626 192.842 1.6986C193.725 0.81534 193.589 1.9595e-05 192.571 1.9595e-05C191.824 1.9595e-05 190.534 2.10626 185.851 10.871C182.05 18.005 169.221 38.456 159.921 52.3164C137.182 86.0843 126.321 102.391 123.335 107.351C92.0429 159.123 78.603 191.261 76.974 217.894C74.3946 260.291 106.026 276.054 174.108 266.27C190.466 263.892 204.246 261.106 230.039 254.856C252.304 249.488 271.106 250.915 290.858 259.544C303.823 265.115 318.756 276.733 329.21 289.235C352.22 316.82 366.135 352.694 365.796 383.948L365.66 393.052L365.117 384.152C363.556 358.265 356.904 337.543 343.6 317.296C339.323 310.773 336.201 307.24 325.205 296.165C311.086 282.101 304.366 276.869 292.895 271.23C276.74 263.281 257.666 260.155 238.592 262.261C230.379 263.213 226.578 264.028 201.598 270.347C177.841 276.326 161.007 279.859 144.038 282.373C130.191 284.479 104.94 285.294 95.5726 284.071C80.9109 282.101 70.6613 277.956 63.5341 270.958C48.7366 256.418 48.6008 232.502 63.1268 196.017C66.2492 188.135 67.6067 185.418 72.3582 177.128C73.6479 174.954 74.6661 173.052 74.6661 172.916C74.6661 172.78 76.7024 169.315 79.1461 165.306C81.6576 161.298 84.3048 156.881 85.0515 155.59C90.0745 146.69 111.524 115.504 129.647 90.7044C149.536 63.4591 162.636 44.2312 173.429 26.1582C182.932 10.3274 188.362 1.9595e-05 187.208 1.9595e-05C186.733 1.9595e-05 184.833 2.85364 183 6.31875C175.737 19.9754 159.378 46.1336 148.586 61.4888C145.938 65.2257 143.087 69.3702 142.205 70.6611C141.255 71.9521 139.286 74.7377 137.793 76.776C136.3 78.8143 134.535 81.2603 133.924 82.2115C133.245 83.1627 131.48 85.6087 129.919 87.647C128.29 89.6853 126.05 92.8107 124.76 94.5772C123.538 96.3437 118.787 103.07 114.171 109.525C102.36 126.239 96.1156 135.343 90.346 144.312C82.3363 156.677 83.3545 153.892 92.1787 139.284C97.2017 130.859 117.226 100.488 124.557 90.025C126.661 87.0355 129.104 83.5024 129.987 82.2115C132.634 78.3387 141.798 65.6333 142.476 64.818C143.563 63.5271 159.107 40.0187 162.84 34.1076C166.913 27.585 174.244 15.2873 176.619 10.871C177.57 9.17238 179.267 6.04698 180.488 3.87279C182.117 0.951227 182.389 1.9595e-05 181.642 1.9595e-05C181.031 1.9595e-05 178.995 2.98953 176.823 6.93024ZM54.9814 214.361C50.8408 228.833 49.7548 244.664 52.2663 254.38C56.5426 271.23 69.2358 281.218 90.9569 284.955C115.529 289.167 150.079 285.09 202.956 271.706C229.836 264.911 231.329 264.572 241.579 263.62C264.046 261.582 287.329 267.697 305.113 280.334C310 283.8 316.992 290.186 313.937 288.352C304.298 282.644 294.524 278.976 282.374 276.462C275.993 275.171 272.396 274.899 262.689 274.899C245.244 274.899 238.728 276.054 207.029 284.887C123.81 308.055 77.4491 310.297 54.642 292.36C46.7002 286.11 42.7633 277.073 42.2203 264.028C41.6772 249.964 44.6639 236.783 53.0808 216.06C54.5062 212.527 55.6602 209.537 55.6602 209.334C55.6602 209.198 55.7959 209.198 55.9996 209.334C56.1353 209.537 55.7281 211.78 54.9814 214.361ZM342.582 318.587C350.32 330.409 355.003 340.872 358.737 354.325C362.47 368.117 363.488 375.727 363.42 390.674C363.352 409.631 361.18 420.162 353.646 437.148C351.813 441.292 349.98 446.116 349.505 447.883C348.216 453.318 347.537 451.552 347.876 443.67C348.283 434.906 349.573 428.111 352.288 420.366C355.546 411.125 356.972 404.603 357.718 395.566C359.958 369.816 352.492 338.698 338.373 314.782C334.64 308.599 334.368 307.851 336.405 310.162C337.762 311.656 340.545 315.461 342.582 318.587ZM361.791 427.432C361.791 431.78 363.828 440.885 366.271 447.611C382.766 493.269 433.81 526.289 495.579 531.317C500.602 531.725 508.476 532.336 513.16 532.744C546.895 535.53 567.327 547.827 580.291 573.034C583.55 579.353 584.703 582.547 583.482 581.799C580.291 579.829 576.897 576.839 575.54 574.869C569.77 566.376 556.941 557.408 544.452 553.127C531.419 548.643 519.405 547.08 492.117 546.265C461.912 545.382 447.318 543.207 427.022 536.617C411.478 531.589 394.441 522.892 385.549 515.554C384.259 514.467 382.426 512.973 381.476 512.157C376.724 508.284 368.375 499.656 364.846 494.968C362.809 492.318 355.682 480.631 355.682 480.02C355.682 479.816 355.071 478.389 354.392 476.759C353.646 475.196 352.22 471.323 351.202 468.13C347.876 457.531 348.691 451.959 356.225 435.177C357.718 431.78 359.348 427.772 359.823 426.141C360.773 422.812 361.791 423.491 361.791 427.432ZM351.949 474.924C359.212 494.152 374.96 511.885 395.866 524.455C413.718 535.122 436.729 542.8 460.554 545.925C470.057 547.148 488.791 548.235 501.01 548.303C520.287 548.303 540.718 552.176 551.918 557.815C559.521 561.688 570.449 570.113 572.282 573.578C572.961 574.801 572.893 574.801 570.381 573.714C561.421 569.773 553.547 567.599 540.99 565.493C535.017 564.542 528.636 564.338 501.62 564.27C483.904 564.202 467.41 563.93 464.966 563.658C451.187 562.164 447.521 561.688 439.512 560.125C391.658 550.817 359.144 525.95 349.845 491.434C348.283 485.727 348.012 483.077 347.808 473.226L347.537 461.675L348.759 465.752C349.437 467.994 350.863 472.139 351.949 474.924ZM588.437 594.369C589.93 599.125 592.374 608.501 593.935 615.227C599.094 637.377 603.981 656.809 606.424 664.622C608.257 670.737 608.936 674.406 609.547 682.491C610.022 688.063 611.108 697.711 611.991 703.893C612.805 710.076 613.416 715.172 613.348 715.308C612.941 715.716 608.8 703.825 606.56 695.74C602.827 682.287 600.723 670.805 594.206 629.495C591.491 611.898 586.876 595.252 582.328 586.215C581.242 584.109 580.359 582.139 580.359 581.867C580.359 581.663 581.581 582.479 583.074 583.634C585.586 585.604 585.993 586.487 588.437 594.369ZM592.102 593.961C593.663 596.407 595.496 601.027 597.6 608.093C599.365 613.868 601.741 621.342 602.827 624.739C604.931 631.33 606.492 642.065 607.103 653.955C607.443 661.293 607.443 661.361 606.424 658.371C605.271 654.974 600.044 633.912 596.65 619.304C594.478 609.724 590.337 593.825 589.523 591.583C588.64 589.409 589.726 590.428 592.102 593.961ZM620.068 698.866C621.765 702.059 624.005 705.796 625.023 707.223C626.041 708.649 627.331 710.552 627.874 711.367C630.114 714.832 635.952 721.491 640.432 725.839C658.691 743.504 682.584 754.715 711.093 758.928C714.012 759.403 723.786 759.811 732.746 759.947C751.141 760.218 759.354 761.374 769.74 765.246C775.509 767.42 782.84 771.293 786.03 773.807L787.727 775.166L784.333 774.215C782.501 773.671 779.582 772.448 777.885 771.565C767.975 766.265 749.24 764.363 734.104 767.081C720.867 769.527 715.437 769.934 703.219 769.595C686.657 769.119 676.611 767.217 662.492 761.849C656.179 759.471 644.979 753.696 643.486 752.133C643.282 751.929 642.061 750.978 640.771 750.095C636.019 746.834 628.417 739.36 624.209 733.856C617.149 724.752 616.199 722.102 613.891 706.951C612.601 698.322 610.904 683.103 610.972 680.453C610.972 678.958 611.787 680.385 613.959 685.753C615.588 689.829 618.371 695.672 620.068 698.866ZM620.883 732.226C624.752 738.137 630.861 744.32 640.567 752.133C643.079 754.172 649.595 757.908 655.093 760.49C677.561 771.089 703.966 774.011 732.067 769.119C741.367 767.488 755.349 767.149 762.273 768.372C764.717 768.847 768.654 769.866 771.097 770.682L775.509 772.109L767.228 772.924C757.725 773.807 750.734 775.302 742.588 778.02C727.451 783.047 708.649 785.29 692.223 783.999C656.654 781.349 632.218 765.178 621.154 736.982C617.624 728.149 617.624 727.13 620.883 732.226Z" fill="#0193CC"/>
<path d="M212.798 5.29961C209.269 12.0939 197.186 32.409 191.552 41.1058C182.389 55.0342 168.27 78.4746 161.55 90.7044C143.63 123.317 132.227 153.484 129.987 173.935C129.172 181.137 129.444 192.28 130.598 197.715C132.702 207.975 139.558 218.234 148.11 224.077C159.718 232.027 178.316 235.628 202.956 234.88C219.654 234.337 233.298 232.638 255.222 228.494C262.417 227.203 265.54 226.863 269.613 227.203C279.183 228.018 291.401 232.366 302.398 238.957C321.2 250.303 344.957 274.899 360.298 298.815C371.226 315.869 379.1 331.768 383.852 346.104C387.517 357.11 388.739 363.021 389.282 372.873C389.757 381.978 390.368 385.715 392.812 393.392C395.934 403.108 405.098 419.618 412.496 428.655C433.199 453.998 459.604 474.177 489.538 487.63C499.584 492.114 513.024 496.666 522.323 498.636C533.795 501.15 539.089 502.781 544.655 505.635C552.393 509.507 555.516 511.75 562.1 518.34C572.893 529.211 580.427 543.071 590.609 570.724C592.442 575.752 594.885 582.207 595.903 584.992C596.989 587.778 599.229 593.757 600.926 598.241C611.312 625.894 624.073 649.335 638.056 666.525C645.862 676.105 658.827 689.489 666.836 696.08C668.601 697.575 670.705 699.341 671.52 700.021C676.475 704.301 689.643 713.405 697.449 718.094C713.74 727.809 729.42 734.672 747 739.835C758.947 743.368 787.32 761.917 800.149 774.554C802.729 777.136 803 777.204 803 775.845C803 774.147 800.624 771.769 791.121 764.091C775.374 751.386 756.436 740.447 744.014 736.914C731.592 733.313 712.722 725.024 701.658 718.229C699.146 716.735 696.974 715.444 696.838 715.444C696.635 715.444 693.105 713.134 688.829 710.28C682.245 705.796 678.647 703.146 671.791 697.778C663.85 691.596 647.491 675.017 639.889 665.505C624.684 646.481 615.86 630.311 602.08 596.203C601.605 594.98 600.112 590.971 593.188 571.879C586.536 553.671 579.477 538.179 574.25 530.298C561.557 511.41 547.642 501.83 526.735 497.685C518.319 496.055 507.797 492.861 498.905 489.396C491.099 486.339 475.759 478.933 470.939 475.875C469.514 474.992 468.224 474.245 468.089 474.245C467.885 474.245 463.812 471.595 459.061 468.402C423.968 444.689 398.378 412.416 392.336 384.356C391.929 382.589 391.318 376.746 390.979 371.446C390.164 359.624 388.332 351.811 383.241 338.018C381.069 332.243 370.683 311.52 367.9 307.308C366.746 305.677 365.864 304.183 365.864 303.979C365.864 303.843 363.692 300.378 360.977 296.369C339.527 264.3 312.987 239.704 289.569 230.328C277.554 225.504 267.576 224.213 257.598 226.184C215.106 234.676 181.507 235.424 161.415 228.29C144.784 222.447 135.892 212.663 132.227 196.017C129.24 182.7 132.77 160.55 141.526 137.653C146.889 123.521 157.817 100.896 166.37 86.1522C167.863 83.7063 169.017 81.4641 169.017 81.3282C169.017 80.9885 173.565 73.4468 181.371 60.8773C183 58.2954 184.765 55.3739 185.308 54.4227C185.851 53.4715 188.634 49.1231 191.485 44.8427C194.268 40.5622 197.186 36.078 197.933 34.855C198.612 33.632 200.512 30.5745 202.006 28.0606C203.567 25.5467 205.468 22.3534 206.214 21.0625C217.686 0.883291 218.093 2.76267e-05 216.735 2.76267e-05C215.921 2.76267e-05 214.631 1.69861 212.798 5.29961Z" fill="#0193CC"/>
<path d="M224.745 6.25077C218.84 17.0538 216.871 20.4509 211.78 28.8759C197.865 51.7049 195.489 55.7135 188.837 67.9434C183.746 77.3195 175.533 93.8977 172.139 101.915C166.981 113.941 167.252 113.33 164.265 121.958C146.278 173.663 156.324 204.917 194.132 214.905C203.703 217.487 211.373 218.302 225.356 218.37C240.357 218.438 248.91 217.759 268.662 214.973C275.45 214.022 277.758 213.954 281.152 214.565C287.668 215.788 300.701 222.515 308.914 228.901C310.611 230.26 313.055 232.095 314.276 233.046C319.91 237.19 341.156 257.913 347.333 265.387C348.962 267.289 350.931 269.599 351.745 270.551C354.528 273.676 358.805 279.043 364.981 287.333C366.543 289.439 368.104 291.409 368.375 291.817C368.715 292.157 371.837 296.777 375.299 302.008C390.572 324.905 399.464 343.318 402.247 358.197C404.622 370.903 412.971 387.889 422.474 399.439C423.628 400.866 425.19 402.836 425.936 403.72C441.955 424.035 468.632 446.592 496.801 463.646C509.155 471.119 530.061 480.835 540.311 483.825C546.963 485.795 556.466 492.997 563.254 501.354C571.874 511.953 576.762 521.737 591.559 558.495C608.461 600.28 621.765 623.177 641.45 644.375C652.242 656.061 667.515 670.601 677.018 678.415C678.851 679.909 681.769 682.287 683.398 683.714C686.114 686.024 699.757 696.488 703.626 699.137C720.528 710.959 738.651 721.966 750.394 727.674C753.788 729.304 757.861 731.682 759.558 733.041C761.187 734.4 763.223 735.963 763.97 736.574C765.328 737.729 779.514 749.755 783.994 753.628C785.284 754.783 789.289 758.316 792.818 761.577C796.348 764.771 800.013 768.1 800.964 768.983C802.389 770.274 802.661 770.342 802.864 769.391C803.136 768.304 801.71 766.809 793.361 759.267C788.338 754.715 786.234 752.813 777.885 745.679C761.458 731.682 758.675 729.644 748.086 724.208C734.375 717.142 720.324 708.446 701.929 695.536C691.883 688.47 673.285 672.911 661.949 662.176C644.911 645.938 637.445 637.717 628.078 624.739C614.027 605.24 604.728 586.555 587.758 543.683C586.672 541.033 585.179 537.432 584.432 535.734C583.685 534.103 583.074 532.608 583.074 532.336C583.074 532.133 581.377 528.464 579.341 524.183C571.671 508.284 563.933 497.278 555.448 490.415C549.271 485.455 545.945 483.621 538.275 481.039C526.939 477.234 505.693 467.111 496.19 460.996C484.447 453.454 480.782 450.94 475.148 446.864C458.11 434.294 437.951 415.61 428.108 403.244C419.895 392.917 417.044 388.84 412.904 381.162C408.695 373.553 405.98 366.215 404.147 357.654C399.26 334.621 383.784 307.172 356.429 273.132C346.926 261.378 325.205 239.093 316.381 232.163C303.416 221.971 291.13 214.973 282.509 212.935C277.894 211.779 277.486 211.779 264.318 213.614C244.837 216.264 238.864 216.671 223.659 216.4C205.875 216.128 195.422 214.293 185.036 209.809C171.664 203.898 163.179 194.454 159.378 181.137C158.021 176.381 157.817 174.139 157.885 164.763C157.885 152.737 158.767 147.029 162.636 133.509C168.202 114.213 176.416 95.0528 189.72 70.6611C196.1 58.9069 200.92 50.6857 214.97 27.517C220.944 17.5294 230.107 1.22296 230.107 0.475581C230.107 0.203808 229.7 -2.24048e-05 229.157 -2.24048e-05C228.614 -2.24048e-05 226.646 2.8536 224.745 6.25077Z" fill="#0193CC"/>
<path d="M239.746 2.51394C238.66 4.82401 236.081 9.44416 232.822 15.2873C232.144 16.3744 230.243 19.7036 228.478 22.6252C226.781 25.5467 225.356 28.0606 225.356 28.3324C225.356 28.6042 224.949 29.2836 224.406 29.8272C223.93 30.4387 222.369 33.0205 220.944 35.6703C219.518 38.2522 217.143 42.5326 215.717 45.1824C212.731 50.5499 202.617 71.0009 199.902 77.1158C193.657 91.1121 187.683 108.506 185.036 120.26C176.687 157.968 184.833 182.02 210.083 193.91C221.623 199.414 232.755 201.656 251.15 202.267C261.671 202.607 274.771 202.064 287.464 200.705C291.537 200.297 291.605 200.297 296.289 203.49C300.769 206.548 307.76 212.051 313.937 217.351C320.385 222.922 348.691 251.934 357.379 261.922C362.606 267.901 367.425 273.404 368.104 274.152C368.783 274.899 372.923 279.927 377.267 285.362C381.544 290.798 386.227 296.573 387.585 298.271C398.988 312.472 412.361 334.146 415.687 343.997C417.859 350.452 423.56 360.508 429.602 368.593C439.715 382.182 463.88 406.166 480.239 418.871C481.664 419.958 483.158 421.249 483.565 421.589C483.972 421.996 486.144 423.695 488.384 425.326C490.624 427.024 492.593 428.519 492.796 428.723C493.475 429.47 504.132 437.284 508.476 440.273C510.92 441.972 515.264 444.961 518.183 446.932C527.821 453.522 552.461 468.13 553.887 468.13C554.905 468.13 561.15 476.011 564.408 481.379C568.956 488.853 572.35 496.326 580.02 515.69C596.446 557 602.623 569.909 615.588 589.749C617.624 592.942 620.204 596.611 621.222 597.902C622.308 599.193 623.394 600.619 623.666 600.959C632.218 612.985 646.337 626.71 673.963 649.743C677.9 653.072 681.905 656.401 682.855 657.216C683.806 658.032 688.965 662.312 694.395 666.728C699.825 671.145 704.916 675.357 705.663 676.037C706.477 676.716 711.025 680.317 715.844 684.122C720.664 687.927 725.822 692.071 727.248 693.226C730.167 695.604 761.934 719.928 763.155 720.743C763.631 721.015 765.056 722.578 766.414 724.276C767.771 725.975 769.468 727.945 770.147 728.761C770.894 729.508 773.134 732.09 775.17 734.468C777.206 736.846 782.433 742.689 786.845 747.377C803.068 764.907 803 764.839 803 762.529C803 761.917 800.624 758.928 797.773 755.938C788.203 745.95 783.044 740.311 776.188 732.43C772.523 728.149 768.789 723.869 767.907 722.918C767.025 721.966 766.346 721.015 766.346 720.811C766.346 720.54 760.169 715.716 752.634 709.94C725.619 689.557 684.892 656.673 661.474 636.426C659.302 634.455 655.908 631.534 654.007 629.903C638.802 616.79 624.141 599.804 614.502 584.245C603.642 566.784 597.261 553.399 584.568 521.465C573.164 492.725 570.178 486.135 564.544 477.71C559.724 470.372 556.195 466.907 550.9 464.257C545.266 461.404 531.351 453.114 523.342 447.883C517.3 443.942 494.086 427.432 493.475 426.684C493.271 426.481 491.167 424.782 488.724 422.948C467.546 406.981 443.041 382.929 429.126 364.516C425.597 359.828 418.945 347.462 417.451 342.774C414.94 334.825 404.147 316.752 393.558 302.688C360.705 259.136 315.498 212.119 294.795 199.957C291.809 198.259 291.809 198.259 284.546 199.006C272.599 200.365 250.131 200.773 240.832 199.754C210.151 196.628 191.688 184.195 185.783 162.724C182.796 151.921 183.611 134.732 187.751 117.882C193.521 94.781 206.011 66.2448 224.745 33.632C234.723 16.2385 235.809 14.2681 240.018 6.31877C243.344 0.0679743 243.411 3.08957e-05 241.986 3.08957e-05C241.443 3.08957e-05 240.425 1.15507 239.746 2.51394Z" fill="#0193CC"/>
<path d="M248.57 11.0067C228.41 47.3564 215.581 78.3386 210.762 102.526C205.875 127.054 207.64 144.991 216.192 158.648C221.555 167.141 227.867 172.78 236.963 177.196C251.489 184.194 265.947 186.776 290.247 186.844H305.249L306.199 188.679C308.032 192.28 322.354 209.469 332.536 220.408C334.233 222.175 336.608 224.689 337.694 225.844C338.848 227.067 341.224 229.716 343.057 231.755C344.889 233.793 349.369 238.481 352.899 242.218C359.212 248.877 373.874 264.436 384.191 275.51C386.974 278.5 391.59 283.392 394.305 286.381C398.717 291.137 404.079 297.116 409.985 303.979C410.935 305.066 412.157 306.493 412.7 307.104C413.311 307.648 415.551 310.433 417.791 313.219C420.031 316.005 422.406 318.926 423.085 319.606C423.696 320.353 426.14 324.09 428.448 327.963C435.439 339.581 440.869 346.239 454.784 360.1C467.817 373.145 480.171 384.016 498.226 398.42C503.249 402.429 507.865 406.098 508.408 406.505C511.191 408.747 519.269 414.93 520.898 416.153C521.984 416.901 523.138 417.852 523.613 418.191C524.02 418.599 525.581 419.822 527.075 420.909C528.568 422.064 529.926 423.083 530.129 423.287C530.333 423.559 533.659 426.141 537.596 429.13C541.533 432.052 544.859 434.634 545.062 434.906C545.266 435.109 547.71 437.08 550.493 439.254C559.588 446.456 566.444 452.639 566.987 454.134C567.327 454.881 569.702 463.17 572.282 472.546C580.97 503.596 586.672 520.174 594.817 537.5C608.732 567.191 630.453 593.553 656.383 612.374C660.32 615.227 665.139 618.692 667.04 620.119C670.434 622.565 683.806 632.553 685.231 633.708C685.638 634.048 688.693 636.426 692.019 639.007C695.413 641.589 698.535 644.171 699.078 644.647C699.621 645.122 702.201 647.297 704.848 649.403C707.495 651.509 709.803 653.411 710.007 653.615C710.21 653.819 713.74 656.877 717.813 660.41C730.777 671.552 741.163 681.268 753.924 693.906C769.129 708.989 769.197 709.057 775.849 719.792C780.532 727.334 793.497 746.018 795.805 748.532C796.212 748.94 797.909 750.978 799.606 753.084C802.118 756.21 802.728 756.617 802.864 755.53C803 754.783 802.525 753.424 801.846 752.609C791.461 739.292 780.396 723.393 773.134 711.299C770.215 706.475 743.606 680.045 725.619 664.214C706.273 647.161 678.308 624.943 663.51 614.888C652.378 607.278 637.038 594.029 628.485 584.585C623.19 578.742 608.189 558.63 608.189 557.407C608.189 557.204 607.307 555.709 606.153 554.078C604.184 551.225 596.921 537.024 593.528 529.415C587.758 516.506 580.766 495.579 574.59 472.546C570.381 456.783 568.888 452.435 567.191 450.533C566.444 449.717 562.575 446.32 558.638 443.059C550.493 436.332 551.647 437.284 531.487 421.657C482.75 383.88 466.595 370.088 447.997 350.248C441.412 343.25 437.475 338.086 431.57 328.642C426.004 319.809 423.153 316.005 412.7 303.707C405.505 295.214 386.159 274.016 373.33 260.563C332.739 217.962 313.394 196.288 308.167 187.66L306.47 184.874L291.401 184.806C263.707 184.806 246.398 181.069 232.483 172.033C210.898 158.104 204.925 131.742 214.835 94.1015C216.532 87.5789 223.591 66.9241 225.831 61.8284C226.578 60.1298 227.732 57.4121 228.478 55.7135C230.379 51.1613 245.244 21.47 248.502 15.6269C253.593 6.65836 256.512 1.01905 256.58 0.475507C256.58 0.203733 256.173 -9.67511e-05 255.63 -9.67511e-05C255.154 -9.67511e-05 251.964 4.95977 248.57 11.0067Z" fill="#0193CC"/>
<path d="M261.942 12.7053C258.548 19.7715 255.358 26.5658 254.883 27.8567C254.408 29.1476 253.254 31.9333 252.304 33.9716C246.262 47.0847 239.814 66.9921 236.963 81.0564C232.279 103.953 233.773 124.336 240.968 137.721C252.643 159.395 273.482 169.519 313.801 172.984L319.028 173.391V175.769C319.028 178.759 321.947 187.456 324.322 191.532C328.802 199.278 334.776 207.295 343.396 217.351C349.777 224.689 379.575 254.72 390.368 264.639C401.161 274.559 401.975 275.307 409.034 281.693C412.361 284.751 416.026 288.08 417.112 289.099C431.163 301.94 441.073 311.724 444.263 315.869C445.757 317.771 450.983 323.275 455.803 328.031C463.337 335.436 467.478 339.173 476.37 346.647C482.479 351.743 498.634 364.584 510.988 374.096C514.857 377.018 520.626 381.57 523.885 384.084C527.143 386.666 530.876 389.519 532.166 390.538C544.18 399.915 560.267 413.843 566.308 420.162C569.906 423.899 576.287 432.12 577.644 434.77C578.187 435.789 578.255 437.487 577.984 439.458C577.305 444.214 577.508 461.811 578.323 468.605C583.685 511.41 604.931 550.477 638.056 578.674C644.844 584.449 658.08 593.621 666.225 598.241C678.24 605.036 688.829 611.966 701.861 621.682C711.364 628.68 714.012 630.786 716.387 632.893C716.795 633.3 719.102 635.271 721.478 637.309C739.466 652.664 756.911 671.484 769.808 689.354C775.238 696.759 777.206 700.157 779.582 705.932C781.143 709.669 784.062 715.648 789.967 727.334C791.8 730.867 801.642 746.63 802.321 747.037C803.815 747.989 802.864 744.048 800.828 740.923C794.04 730.595 788.542 720.268 782.433 706.883C777.749 696.488 772.591 688.402 763.766 677.463C755.689 667.476 754.603 666.253 742.045 653.615C725.822 637.173 710.686 624.536 690.661 610.675C685.299 607.006 666.09 595.184 665.411 595.184C664.732 595.184 651.156 586.012 645.862 581.935C614.434 557.883 591.966 522.892 583.414 484.776C580.291 470.848 579.477 462.491 579.884 447.951C580.156 435.313 580.156 434.906 578.594 432.188C574.793 425.461 564.476 414.387 552.869 404.535C550.221 402.361 546.42 399.167 544.452 397.469C541.193 394.751 530.197 385.986 524.02 381.298C478.406 346.307 457.364 328.234 446.028 314.238C441.888 309.142 433.335 300.717 421.185 289.778C417.112 286.042 411.614 281.014 408.967 278.568C406.387 276.122 400.889 271.094 396.749 267.357C387.517 258.932 377.81 249.624 366.271 238.141C337.287 209.333 322.286 188.475 321.268 175.702L320.928 171.489L309.593 170.334C286.989 168.024 272.124 163.676 260.653 156.066C247.348 147.233 239.882 135.343 237.302 118.901C233.094 92.6747 243.955 52.0446 267.237 6.93016C270.427 0.747309 270.699 -6.78998e-05 269.477 -6.78998e-05C268.391 -6.78998e-05 266.897 2.58178 261.942 12.7053Z" fill="#0193CC"/>
<path d="M282.442 1.15494C281.355 3.26118 275.043 19.092 272.531 26.1581C263.368 51.501 258.888 76.7759 260.585 93.9656C262.214 110.951 267.101 122.774 276.672 133.101C286.989 144.244 299.954 150.834 324.662 157.493C328.667 158.58 332.061 159.599 332.264 159.735C332.4 159.871 332.061 161.705 331.45 163.743C326.155 183.515 345.636 211.372 391.658 249.76C398.445 255.467 413.311 266.949 421.796 273.132C432.724 281.15 443.517 288.895 447.521 291.613C449.761 293.108 454.649 297.184 458.45 300.717C462.319 304.25 466.935 308.259 468.767 309.686C470.6 311.045 472.569 312.607 473.112 313.151C474.673 314.714 494.018 328.914 505.693 337.203C511.463 341.347 518.386 346.239 520.966 348.21C523.613 350.112 530.265 355.072 535.763 359.149C541.329 363.225 546.216 366.826 546.624 367.234C547.099 367.574 550.493 370.359 554.226 373.349C557.959 376.338 562.779 380.415 564.951 382.453C567.123 384.492 569.499 386.598 570.245 387.141C573.096 389.112 583.346 401.409 586.129 406.098C587.69 408.883 589.387 412.824 589.862 415.066C590.677 419.075 590.677 419.211 588.233 424.85C580.359 443.263 579.748 467.111 586.604 489.192C593.935 512.972 607.918 534.578 627.127 551.904C641.857 565.153 653.396 572.627 677.697 584.517C685.163 588.186 693.852 592.738 697.042 594.64C702.676 597.97 719.51 609.248 720.188 610.064C720.392 610.267 722.768 612.306 725.551 614.548C753.517 636.833 777.342 668.835 785.623 695.061C789.017 705.796 794.787 720.404 799.199 729.372C802.593 736.234 802.864 736.642 802.932 734.4C803 732.701 801.846 729.508 799.674 724.888C795.533 716.123 792.547 708.514 788.203 695.4C784.809 685.209 779.718 674.066 775.577 667.544C774.355 665.709 772.794 663.195 772.115 662.108C767.5 654.363 754.399 638.328 745.303 629.156C726.162 609.792 706.07 595.728 678.511 582.275C652.174 569.433 639.685 560.94 623.937 545.381C604.795 526.493 591.763 503.596 586.468 479.544C585.111 473.701 583.685 460.452 583.821 455.9C583.889 454.609 584.16 455.968 584.5 458.957C586.74 481.243 593.799 498.908 607.375 516.03C612.534 522.552 624.955 534.782 631.947 540.218C644.029 549.594 662.288 559.718 678.443 565.968C701.386 574.869 709.464 578.81 723.99 588.39C733.221 594.505 740.28 600.28 749.444 609.452C762.612 622.565 767.432 628.612 775.645 642.405C783.926 656.333 788.27 667.068 791.8 682.899C794.583 694.993 795.533 698.39 799.81 711.707C802.593 720.336 802.661 720.472 802.864 717.346C803 715.58 802.593 712.658 801.982 710.892C799.402 703.486 796.076 691.528 794.447 683.85C789.221 658.983 777.614 636.697 759.015 615.635C752.159 607.889 752.091 607.821 744.557 601.163C726.298 585.06 709.667 575.412 681.498 564.609C656.926 555.097 635.544 541.848 620.34 526.629C602.963 509.168 592.645 491.095 588.505 470.848C586.672 461.743 586.876 458.89 588.776 466.431C593.12 482.874 601.198 496.53 614.977 510.323C626.72 522.145 641.11 532.132 657.062 539.674C668.94 545.246 674.982 547.488 697.11 554.418C712.382 559.242 724.872 565.085 736.819 572.966C771.233 595.728 793.769 631.262 798.588 670.261C799.742 679.841 802.118 693.09 802.796 693.634C803.475 694.313 802.457 679.977 801.032 669.922C798.52 652.188 794.108 638.124 786.506 623.788C768.45 589.545 736.547 563.658 698.128 552.108C694.802 551.089 688.218 549.05 683.534 547.488C636.155 531.997 602.691 503.46 592.306 469.625C590.337 463.374 589.183 457.87 589.251 455.356C589.251 454.066 589.523 454.541 590.202 456.919C594.139 471.595 604.388 487.494 616.878 498.433C624.48 505.091 625.43 505.838 632.626 510.594C650.41 522.349 671.248 530.774 698.196 537.024C718.084 541.713 729.081 545.653 741.842 552.719C749.24 556.864 750.055 557.339 756.503 562.163C778.157 578.47 792.886 600.416 801.303 628.816L802.932 634.251V629.767C803 623.992 800.896 617.469 795.194 605.647C782.365 579.149 762.273 559.174 735.868 546.74C724.465 541.373 716.862 538.927 697.789 534.375C661.202 525.678 634.322 512.089 614.977 492.657C603.166 480.699 595.835 468.673 592.645 455.968C590.609 447.747 590.88 445.641 593.188 451.823C595.903 459.161 598.008 463.034 602.759 469.489C607.85 476.419 611.583 480.428 618.371 486.067C638.667 503.121 667.854 515.215 703.558 521.397C718.627 524.047 727.859 526.221 735.801 528.939C765.056 539.131 786.573 557.747 800.217 584.653L802.932 590.088L803 586.827C803.068 578.538 785.623 555.369 771.437 544.906C752.974 531.249 736.208 524.455 710.346 520.039C698.943 518.136 689.779 516.234 682.177 514.195C660.591 508.556 638.463 498.161 622.783 486.271C617.624 482.398 606.425 470.508 603.098 465.412C598.619 458.414 595.564 451.62 593.935 444.893C592.306 437.963 592.238 435.313 593.867 439.933C603.506 466.907 632.286 487.901 676.068 499.995C685.095 502.441 701.183 505.431 713.74 506.858C729.013 508.624 732.271 509.168 741.57 511.614C754.671 515.079 765.328 519.767 776.527 527.037C783.044 531.249 794.922 542.8 799.81 549.662L803 554.01V551.632C803 548.711 801.167 546.061 793.836 538.247C782.501 526.153 767.975 517.117 750.734 511.41C741.027 508.148 732.474 506.382 718.627 504.751C675.525 499.723 645.658 489.668 622.58 472.342C606.9 460.588 596.039 444.282 594.274 429.742L593.867 426.345L596.107 431.78C603.031 448.29 620.679 464.325 642.332 473.701C645.794 475.196 649.527 476.827 650.613 477.302C666.633 484.232 695.345 490.076 722.904 491.91C742.588 493.269 754.535 495.443 766.889 499.995C778.36 504.14 792.207 512.633 799.674 519.971L803 523.232V521.262C803 517.321 791.053 508.013 777.546 501.49C762.409 494.152 747.611 490.823 722.904 489.192C677.086 486.135 640.703 474.381 617.828 455.289C605.881 445.301 598.143 433.275 595.632 420.705C594.953 417.512 596.107 418.056 597.6 421.725C601.062 430.149 610.497 440.952 621.086 448.562C631.472 455.968 650.002 464.121 666.09 468.402C686.385 473.769 702.88 475.943 731.049 476.962C748.154 477.574 758.404 478.661 767.025 480.631C778.292 483.281 790.986 488.581 798.859 493.88L803 496.734V494.832C803 493.269 802.321 492.521 799.063 490.415C782.908 480.156 759.083 474.245 733.425 474.245C704.576 474.245 671.995 468.605 648.509 459.569C624.073 450.193 605.406 434.43 599.026 417.716C598.211 415.406 598.075 414.251 598.551 413.367C599.162 412.212 599.365 412.348 600.519 414.387C603.031 419.007 609.683 426.616 615.045 431.033C630.657 443.806 652.921 452.775 681.702 457.87C697.653 460.724 706.952 461.403 736.819 462.015C761.798 462.491 767.16 462.762 773.948 463.985C782.026 465.412 795.262 469.285 799.742 471.595C802.932 473.226 803 473.226 803 471.255C803 469.828 802.321 469.353 797.638 467.586C780.125 460.86 774.084 459.977 738.855 459.297C706.477 458.618 696.77 457.87 678.783 454.473C642.739 447.611 614.095 432.052 603.438 413.435C601.741 410.446 601.469 409.495 602.08 408.34C602.488 407.592 602.963 406.981 603.098 406.981C603.234 406.981 606.221 409.834 609.683 413.367C626.924 430.693 655.093 441.496 695.074 446.048C707.495 447.475 734.579 448.019 751.073 447.203C770.554 446.252 787.184 447.611 798.859 451.144L803 452.367V450.804C803 448.902 801.71 448.426 792.139 446.456C779.65 443.942 768.789 443.398 747.543 444.282C728.538 445.165 716.659 444.961 701.183 443.602C657.605 439.797 622.715 426.209 608.257 407.388C605.949 404.467 605.474 403.38 605.881 401.953C606.085 401.002 606.56 399.983 606.968 399.779C607.307 399.575 609.343 401.002 611.447 403.04C617.014 408.272 621.358 411.261 629.367 415.338C644.64 423.151 660.795 427.975 682.177 431.033C702.472 433.954 732.407 434.566 756.843 432.528C775.713 430.965 789.628 431.169 800.828 433.207C802.796 433.615 803 433.479 803 431.916C803 430.421 802.661 430.217 799.47 429.81C786.438 428.043 776.46 428.111 747.34 430.082C732.678 431.101 703.015 430.625 690.661 429.13C668.669 426.481 649.934 421.657 634.662 414.658C628.078 411.669 617.624 404.603 613.077 400.119L609.479 396.585L611.244 394.751L613.077 392.849L618.235 396.585C636.223 409.495 663.646 417.308 699.825 419.89C719.442 421.249 740.28 420.569 767.025 417.784C774.695 416.968 785.012 416.425 791.664 416.357H803V414.658V412.892L788.61 413.3C780.668 413.503 770.418 414.115 765.938 414.726C749.648 416.697 735.325 417.376 714.147 416.968C689.779 416.493 677.086 415.066 659.437 410.786C642.807 406.709 624.412 398.488 617.217 391.897L615.724 390.538L617.217 388.364C618.032 387.209 618.778 386.122 618.846 385.986C618.914 385.85 620.475 386.666 622.308 387.821C634.255 395.566 654.347 401.953 676.746 405.214C703.083 409.019 740.009 408.408 775.645 403.584C781.211 402.836 788.881 402.021 792.818 401.817C802.253 401.341 803 401.138 803 399.371C803 397.944 802.864 397.944 795.058 398.352C790.646 398.624 780.057 399.711 771.437 400.798C749.308 403.652 737.226 404.467 717.473 404.467C698.4 404.467 686.86 403.652 671.995 401.138C651.971 397.808 634.933 391.965 623.53 384.695C621.969 383.744 620.679 382.861 620.543 382.793C620.136 382.521 622.444 378.445 623.055 378.445C623.326 378.445 625.838 376.202 628.689 373.417C631.947 370.088 634.526 366.758 636.019 363.905C637.241 361.459 639.006 358.945 640.024 358.333C643.35 356.091 649.256 349.908 651.631 346.104C652.921 343.997 656.994 339.377 660.659 335.776C664.257 332.243 668.465 327.487 669.959 325.245C671.452 323.003 674.982 319.266 677.697 316.888C682.788 312.607 688.286 306.357 689.983 303.027C690.526 302.008 691.747 300.649 692.698 300.038C696.024 297.864 704.101 289.778 707.02 285.634C708.649 283.324 711.161 280.606 712.586 279.519C715.912 277.005 725.89 266.882 727.316 264.504C727.927 263.484 729.827 261.514 731.592 260.223C735.665 257.098 743.742 248.944 745.779 245.887C746.661 244.528 748.765 242.422 750.462 241.267C753.992 238.685 764.988 227.95 764.988 226.999C764.988 226.659 768.314 223.602 772.455 220.136C776.527 216.739 781.279 212.255 782.976 210.149C784.673 208.11 787.795 205.053 789.967 203.422C792.072 201.724 795.873 198.327 798.452 195.881C802.457 191.94 803 191.057 803 188.883V186.369L797.095 192.348C793.904 195.677 791.189 198.327 791.053 198.191C790.986 198.123 791.325 196.085 791.868 193.639C793.701 185.078 791.189 178.419 783.315 170.538C765.26 152.465 715.776 138.265 642.807 130.179C614.027 126.986 592.306 125.559 589.183 126.646C588.64 126.85 582.531 127.598 575.608 128.413C502.639 136.362 447.318 133.916 421.796 121.619C411.071 116.455 405.844 109.728 405.98 101.236C406.048 98.7896 406.251 96.0719 406.591 95.1206C406.998 93.5579 407.134 93.6259 407.541 96.1398C409.442 106.943 416.705 113.465 432.045 118.425C448.268 123.589 467.206 125.355 500.602 124.812C530.537 124.336 559.385 121.822 594.274 116.795C610.022 114.485 611.991 114.485 641.45 116.591C722.972 122.366 781.483 136.294 800.828 154.503L803.068 156.609L802.864 153.892C802.661 151.31 802.389 150.97 796.416 147.029C769.604 129.092 706.409 116.523 621.358 112.106C608.732 111.495 607.918 111.495 594.885 113.465C556.534 119.105 523.341 121.754 492.457 121.754C472.093 121.754 460.283 121.007 448.336 118.901C428.991 115.504 417.587 110.068 412.904 102.051C411.274 99.3331 411.003 98.1102 411.003 93.9656C411.071 88.2584 411.274 87.9186 418.537 82.5511C421.185 80.5808 424.85 77.2515 426.615 75.1453C428.448 73.107 431.638 70.1854 433.742 68.6907C435.846 67.1959 439.987 63.5949 442.974 60.6733C445.892 57.7518 449.694 54.2867 451.391 52.9957C455.26 50.0062 458.043 47.6282 463.609 42.3966C466.052 40.1544 470.193 36.6214 472.772 34.5831C475.419 32.5448 479.356 29.2156 481.596 27.1773C483.836 25.071 488.724 20.9944 492.457 18.0049C496.19 15.0833 501.553 10.667 504.403 8.22105C507.254 5.77509 510.58 2.92147 511.87 1.90232L514.178 0.0678458H509.902C507.051 -9.75777e-05 505.082 0.339619 503.928 1.087C502.435 2.10615 502.299 2.10615 502.707 1.087C503.046 0.271676 502.707 -9.75777e-05 501.485 -9.75777e-05C500.331 -9.75777e-05 499.448 0.74728 498.294 2.85352C497.073 5.09566 495.036 6.86218 489.538 10.3952C485.669 12.9091 482.343 14.9474 482.275 14.8116C482.139 14.6757 482.411 13.045 482.886 11.2106C483.361 9.30815 483.972 6.04686 484.176 3.87268C484.515 0.0678458 484.515 -0.068041 483.09 0.135789C481.8 0.339619 481.528 0.883166 481.121 4.62005C480.85 6.99807 479.967 11.0067 479.153 13.6565L477.659 18.4126L469.921 23.9839C465.645 27.0414 461.64 29.895 461.029 30.3706C459.943 31.118 459.875 30.7103 460.079 24.4595C460.283 18.0049 459.129 8.35694 457.364 2.51381C456.753 0.611393 456.278 -9.75777e-05 455.056 -9.75777e-05C453.563 -9.75777e-05 453.563 0.0678458 454.513 3.19324C456.549 9.91964 457.703 19.1599 457.296 25.8184C457.092 29.3514 456.753 32.7486 456.481 33.2922C456.278 33.8357 453.223 36.5534 449.829 39.2712C446.368 41.9889 442.295 45.2502 440.734 46.6091L437.883 48.9871L437.543 45.7258C436.525 37.3008 434.625 29.6912 429.805 15.4231C425.122 1.63054 424.443 -9.75777e-05 423.085 -9.75777e-05C421.728 -9.75777e-05 421.796 0.611393 426.276 13.9962C428.855 21.6738 431.57 30.1668 432.317 32.8166C433.946 38.5238 435.303 49.1909 434.76 51.0254C434.557 51.7048 432.452 54.1508 430.077 56.3929C427.769 58.635 423.696 63.0514 421.117 66.1768L416.433 71.884L415.687 67.06C414.668 60.8772 413.243 56.7326 406.862 41.3095C401.296 27.8567 395.798 11.7541 394.373 4.89183C393.558 0.883166 392.608 -0.475701 391.047 0.135789C390.3 0.407563 393.422 13.2489 396.477 21.9456C397.631 25.3428 401.364 34.9228 404.69 43.144C411.41 59.7901 413.379 66.3126 413.379 72.0878C413.379 76.3683 413.379 76.3003 401.839 90.9761L397.427 96.5475L396.681 92.6067C395.459 86.0162 392.879 80.1731 385.549 67.2639C374.62 48.2397 367.697 27.7887 366.203 10.3952C365.457 1.49466 365.117 -9.75777e-05 364.099 -9.75777e-05C362.945 -9.75777e-05 362.809 4.55211 363.828 12.9091C366.271 32.5448 371.905 48.2397 384.734 71.4763C390.911 82.5511 392.065 85.133 393.422 90.0249C395.459 97.4987 394.441 100.148 386.295 108.438L379.847 114.892L379.1 111.971C378.15 108.098 376.249 104.972 370.276 97.4987C363.081 88.3942 361.655 86.4918 357.379 80.1731C343.803 59.9939 338.034 34.1754 340.613 5.23154C341.088 0.611393 341.02 -9.75777e-05 340.002 -9.75777e-05C338.577 -9.75777e-05 338.237 1.90232 337.694 12.5694C336.948 26.294 339.12 44.4349 342.717 55.4417C348.08 71.4084 352.967 79.9013 367.764 98.4499C373.806 106.06 376.317 110.34 377.064 114.349C377.539 116.727 377.335 117.066 373.263 121.415C370.887 123.929 368.783 126.171 368.579 126.375C368.375 126.578 367.493 127.733 366.611 128.889C364.778 131.538 364.099 131.674 363.556 129.568C363.149 127.733 357.175 121.754 350.931 116.863C343.057 110.68 333.554 100.692 328.938 93.8297C322.015 83.5703 318.145 73.9223 315.838 61.149C314.412 53.2675 314.276 33.9037 315.566 24.4595C316.381 18.2087 319.367 2.98941 320.182 1.01905C320.385 0.339619 320.114 -9.75777e-05 319.164 -9.75777e-05C318.078 -9.75777e-05 317.602 0.815223 316.72 4.34828C312.919 19.5676 311.154 43.8234 312.919 57.548C314.752 72.0878 320.725 87.443 328.734 98.1781C333.622 104.769 337.966 109.117 348.691 118.221C359.008 126.918 362.47 130.723 361.452 132.082C361.045 132.557 359.144 135.071 357.243 137.653C348.759 148.796 346.383 161.433 350.388 173.595C356.632 192.551 375.095 210.828 410.392 232.842C424.782 241.878 458.721 258.049 474.944 263.688C476.845 264.3 482.547 267.289 487.502 270.279C492.457 273.2 501.417 278.296 507.39 281.625C557.62 309.278 583.278 325.381 596.786 337.814L599.976 340.736L599.365 344.133C598.686 348.074 596.65 367.642 596.65 370.563C596.65 372.466 596.379 372.262 591.491 366.962C586.943 362.138 574.047 350.724 568.548 346.851C567.53 346.104 564.611 343.929 562.168 342.027C555.244 336.727 534.745 323.071 511.802 308.463C500.399 301.193 489.131 293.923 486.687 292.224C477.32 285.77 475.352 284.343 471.754 281.625C469.718 280.063 464.695 277.005 460.554 274.831C445.553 266.882 436.865 261.854 418.809 250.643C401.296 239.84 379.643 222.99 368.104 211.236C356.632 199.55 351.677 193.027 346.994 183.651C340.885 171.353 341.496 157.697 348.555 148.388C349.505 147.165 350.252 145.942 350.252 145.603C350.252 144.719 344.279 141.05 334.979 136.226C324.322 130.723 322.625 129.704 316.584 125.288C307.421 118.493 301.04 110.748 295.949 100.216C290.18 88.2584 287.94 75.485 288.754 59.4504C289.229 48.9191 289.365 47.9679 291.877 35.3305C293.709 26.0902 299.886 4.21239 301.447 1.22288C302.058 0.0678458 301.99 -0.068041 300.633 0.135789C299.343 0.339619 298.732 1.5626 296.492 8.49283C293.302 18.2767 289.704 33.0204 288.008 42.8042C287.057 48.2397 286.786 53.5393 286.786 64.8858C286.854 78.2027 286.989 80.5128 288.415 86.288C291.944 100.692 296.832 109.525 306.81 119.58C315.159 128.005 319.299 130.791 335.454 139.284L347.401 145.535L345.433 148.66C335.387 164.559 340.002 183.719 359.008 205.461C367.629 215.312 383.58 229.241 397.495 239.161C400.142 241.063 410.799 248.333 411.885 249.012C412.564 249.42 415.211 251.119 417.791 252.817C427.837 259.476 452.952 273.88 462.59 278.568C463.744 279.111 467.41 281.557 470.736 284.003C480.171 290.933 496.394 301.736 517.436 314.985C522.866 318.383 553.004 338.222 554.226 339.241C554.633 339.513 558.163 342.163 562.1 345.084C576.151 355.412 590.337 368.049 594.274 373.756L595.971 376.134L594.953 385.307C594.41 390.335 593.46 398.216 592.917 402.904C592.374 407.592 591.899 411.669 591.899 412.077C591.831 412.416 591.356 411.533 590.745 410.038C590.134 408.543 589.048 406.505 588.369 405.486C587.69 404.535 587.147 403.516 587.147 403.176C587.147 401.953 576.354 389.587 570.992 384.627C559.181 373.824 539.7 358.673 514.178 340.464C484.515 319.266 469.107 307.444 459.197 298.135C456.21 295.35 449.015 289.778 443.245 285.702C420.913 270.007 393.898 249.08 377.675 234.744C373.738 231.347 358.397 215.788 354.189 210.964C344.957 200.569 337.83 189.426 334.572 180.322C332.536 174.614 332.468 166.597 334.504 162.113C335.59 159.735 335.794 158.58 335.251 158.24C334.844 158.036 330.771 156.813 326.223 155.59C301.923 149.068 289.094 142.681 278.844 132.082C271.377 124.336 265.811 112.718 263.639 100.284C261.874 90.5005 262.689 72.5634 265.336 59.6542C268.594 44.0272 274.364 26.294 282.034 8.289C285.157 1.087 285.428 -9.75777e-05 284.342 -9.75777e-05C283.663 -9.75777e-05 282.849 0.54345 282.442 1.15494ZM404.962 111.427C411.342 123.113 428.719 130.383 459.536 134.256C471.279 135.683 512.956 136.294 531.283 135.275C547.574 134.324 570.042 132.354 584.975 130.383C594.953 129.16 596.039 129.16 609.072 130.111C686.792 136.023 747.679 149.611 773.337 166.665C788.406 176.721 792.615 187.116 786.573 199.006C784.605 203.015 783.723 203.898 778.564 207.431L772.794 211.372L772.387 206.752C770.758 186.708 744.353 170.81 691.001 157.697C657.469 149.475 590.066 139.759 577.237 141.322C558.502 143.632 542.415 144.38 510.784 144.38C475.691 144.38 466.935 143.836 447.657 140.303C424.171 135.955 408.559 128.413 402.79 118.425C400.55 114.62 399.871 107.622 401.228 102.798L402.179 99.537L402.654 103.817C402.925 106.399 403.876 109.389 404.962 111.427ZM399.803 119.58C412.157 143.836 477.388 153.484 571.06 144.991C582.328 143.972 584.025 143.972 594.139 144.991C664.732 152.329 721.953 165.986 748.969 181.952C763.427 190.581 770.826 200.841 769.4 210.353C768.925 213.75 768.518 214.09 757.997 219.797C753.517 222.175 752.091 222.718 752.091 221.903C752.091 219.389 748.086 212.731 744.014 208.382C728.402 191.804 690.933 177.4 633.983 166.121C601.741 159.735 572.621 155.658 564.068 156.406C551.782 157.425 503.521 157.832 490.76 157.017C437.951 153.62 406.727 143.36 397.495 126.375C395.119 122.026 394.441 115.436 395.798 110L396.681 106.331L397.495 111.427C397.902 114.281 398.988 117.95 399.803 119.58ZM392.065 114.552C391.793 115.843 391.929 118.697 392.404 120.803C395.255 134.732 408.084 144.448 433.063 151.514C446.028 155.251 463.948 158.036 486.008 159.735C499.72 160.822 539.768 160.822 556.602 159.735C571.399 158.784 575.133 159.123 605.814 164.083C675.321 175.362 723.311 191.532 741.231 209.877C745.507 214.225 749.376 220.68 749.376 223.398C749.376 224.349 747.068 225.708 739.466 229.309L729.556 233.997L728.13 232.027C725.211 227.814 717.338 220.68 711.229 216.739C685.231 199.889 637.445 185.146 569.702 173.188C558.027 171.149 557.213 171.081 544.044 171.489C530.061 171.897 503.453 171.081 489.063 169.858C449.083 166.325 417.927 157.9 402.722 146.418C393.762 139.759 389.621 132.625 389.621 124.132C389.621 119.58 391.183 112.106 392.133 112.106C392.336 112.106 392.269 113.194 392.065 114.552ZM386.567 120.803C385.956 124.472 387.246 131.47 389.282 135.615C396.816 150.97 420.71 162.52 458.043 168.771C482.139 172.848 498.77 174.071 532.505 174.275L560.335 174.479L574.25 176.924C599.433 181.477 625.091 187.252 646.337 193.231C685.435 204.306 713.401 218.098 723.99 231.619L726.976 235.424L715.98 240.927L704.916 246.431L700.843 242.762C679.665 223.466 628.824 204.442 558.163 189.29C544.316 186.369 543.773 186.301 527.754 185.893C509.223 185.485 493.747 184.194 476.709 181.748C426.547 174.479 395.73 160.89 386.363 142.07C384.123 137.517 383.852 136.498 383.852 131.538C383.852 128.209 384.327 124.472 385.073 122.094C386.431 117.678 387.246 116.998 386.567 120.803ZM381.069 128.549C379.983 141.186 386.567 152.125 400.618 161.298C424.646 176.992 472.704 187.456 526.057 188.611C544.384 189.018 547.71 189.562 574.657 195.949C635.748 210.489 676.543 226.319 696.838 243.373C701.522 247.314 702.676 248.673 701.318 248.673C700.843 248.673 686.657 256.554 682.041 259.408L679.733 260.835L676.339 258.049C664.936 248.537 641.653 236.647 615.656 227.067C596.039 219.865 573.707 212.934 547.167 205.8C533.387 202.064 531.012 201.656 521.712 201.044C482.207 198.53 439.715 189.494 415.415 178.351C403.265 172.78 396.07 168.092 389.282 161.365C381.001 153.144 378.625 148.32 378.218 139.488C377.946 134.46 378.218 132.286 379.372 128.481C380.186 125.831 381.001 123.657 381.137 123.657C381.34 123.657 381.272 125.899 381.069 128.549ZM375.978 130.111C375.57 131.606 375.367 135.887 375.503 139.692C375.706 146.146 375.91 146.961 378.421 151.921C387.992 170.81 415.619 185.485 460.554 195.405C478.067 199.278 502.774 202.675 519.608 203.49C531.08 204.034 542.28 206.752 577.644 217.419C600.315 224.281 623.258 232.434 635.001 237.802C651.564 245.343 659.777 249.828 668.94 256.146C674.846 260.155 676.746 261.65 676.746 262.261C676.746 262.465 675.728 263.213 674.574 263.96C673.352 264.639 668.737 267.629 664.325 270.55C659.98 273.472 656.179 275.85 655.976 275.85C655.772 275.85 651.699 273.268 646.88 270.075C632.082 260.223 609.886 249.42 584.093 239.5C557.959 229.445 520.491 217.079 514.11 216.468C477.456 212.663 436.254 201.656 410.935 188.883C398.717 182.7 390.979 177.4 384.123 170.47C379.372 165.782 377.607 163.404 375.299 158.58L372.312 152.601V144.448C372.38 136.974 372.516 135.819 374.281 131.606C376.385 126.578 377.132 125.967 375.978 130.111ZM370.548 133.984C369.869 135.479 369.597 139.012 369.597 144.719C369.597 154.028 370.344 156.677 375.095 164.083C386.77 182.496 417.451 198.666 462.251 209.945C477.049 213.682 499.245 217.623 513.839 219.117C516.622 219.389 525.921 222.107 539.293 226.591C593.731 244.732 625.702 258.728 648.305 274.355C650.885 276.122 652.989 277.685 652.989 277.888C652.989 278.092 650.342 280.266 647.084 282.78C643.758 285.226 639.413 288.691 637.309 290.322L633.576 293.447L625.77 288.148C609.072 276.733 583.278 263.62 554.226 251.73C514.925 235.628 506.508 232.502 498.905 231.075C466.595 224.893 430.823 213.002 408.967 201.18C388.603 190.038 375.231 178.487 369.326 166.665C364.031 156.066 363.963 145.942 369.054 135.071C370.955 130.995 372.177 130.111 370.548 133.984ZM365.525 136.362C355.411 161.501 372.041 185.961 412.904 206.14C435.846 217.419 468.089 227.882 496.869 233.317C504.403 234.676 508.34 236.103 531.147 245.276C577.984 264.096 603.031 276.122 622.444 289.167C632.626 296.029 632.218 294.602 626.041 300.785C623.055 303.707 619.186 307.716 617.489 309.686L614.298 313.355L611.447 310.977C597.6 299.834 565.087 281.693 525.717 263.281C515.671 258.524 504.743 253.361 498.566 250.371C495.24 248.741 490.353 246.906 487.705 246.295C476.913 243.645 446.843 233.046 435.1 227.814C390.504 207.771 364.981 186.437 359.348 164.219C357.922 158.919 358.397 150.698 360.298 145.195C361.588 141.662 366.271 132.49 366.814 132.49C366.95 132.49 366.339 134.256 365.525 136.362ZM359.008 141.118C357.243 145.195 355.682 152.261 355.682 156.27C355.682 168.16 362.809 181.952 374.824 193.299C384.666 202.607 391.386 207.499 406.251 216.196C413.175 220.204 435.711 231.007 445.281 234.744C459.332 240.384 479.492 246.974 488.384 248.944C490.285 249.42 495.919 251.934 517.572 262.261C522.459 264.571 529.179 267.833 532.573 269.395C566.105 285.226 592.442 300.038 607.918 311.656L612.737 315.257L609.208 320.693C607.239 323.682 604.456 328.71 603.098 331.835L600.519 337.543L595.021 332.99C580.156 320.693 556.127 305.473 522.323 287.061C514.042 282.509 486.484 266.882 483.633 265.115C482.139 264.164 477.116 261.922 472.433 260.087C421.728 240.18 379.847 213.546 361.995 189.698C349.03 172.44 347.537 156.609 357.379 141.73C358.737 139.624 360.026 137.925 360.162 137.925C360.298 137.925 359.755 139.352 359.008 141.118ZM749.58 230.328C749.037 232.298 748.019 233.114 741.231 236.851C736.954 239.229 733.221 241.199 733.017 241.199C732.746 241.199 732.203 240.248 731.796 239.093L731.117 237.054L740.416 232.502C745.507 229.988 749.783 228.018 749.919 228.018C750.055 228.086 749.851 229.105 749.58 230.328ZM729.352 241.335C729.827 243.169 729.624 243.305 719.645 248.129L709.396 253.089L708.31 251.187C707.699 250.1 707.292 249.148 707.427 249.012C708.513 247.993 728.13 238.685 728.47 239.025C728.741 239.297 729.148 240.316 729.352 241.335ZM730.37 248.605C730.37 251.051 729.827 251.458 720.596 256.554L713.061 260.767L712.111 258.457C711.636 257.166 711.296 256.011 711.432 255.875C711.975 255.399 729.352 246.702 729.895 246.702C730.167 246.634 730.37 247.518 730.37 248.605ZM705.798 252.545L707.156 254.448L700.64 257.845C696.974 259.747 692.019 262.465 689.575 263.824L685.095 266.338L683.67 264.775L682.177 263.213L685.774 261.106C692.494 257.098 703.558 250.847 704.033 250.779C704.237 250.711 705.052 251.526 705.798 252.545ZM709.328 259.272C709.735 260.223 710.007 261.242 710.007 261.582C710.007 261.854 705.595 264.504 700.164 267.357L690.254 272.521L688.964 270.958C688.218 270.075 687.675 269.26 687.607 269.056C687.607 268.852 690.865 266.882 694.938 264.707C698.943 262.465 703.423 260.019 704.916 259.136C708.378 257.166 708.513 257.166 709.328 259.272ZM682.109 267.969C681.973 268.105 678.511 270.279 674.371 272.793C670.298 275.307 665.614 278.228 664.121 279.315C661.406 281.15 661.27 281.15 660.184 279.995C659.573 279.315 659.098 278.636 659.098 278.432C659.098 278.092 667.922 272.113 677.086 266.27L679.801 264.504L681.023 266.134C681.769 267.017 682.245 267.833 682.109 267.969ZM710.686 268.24V270.822L702.201 275.442C697.517 278.024 693.58 279.995 693.512 279.859C693.173 279.383 691.68 275.782 691.68 275.51C691.68 275.374 694.802 273.676 698.603 271.706C702.404 269.803 706.477 267.629 707.631 266.949C710.482 265.251 710.686 265.319 710.686 268.24ZM686.114 274.967C685.299 275.442 680.548 278.228 675.592 281.218L666.633 286.517L665.139 284.954L663.714 283.392L667.311 281.082C669.348 279.791 674.031 276.869 677.765 274.559L684.552 270.415L686.114 272.181L687.743 274.016L686.114 274.967ZM690.254 279.383C690.661 280.538 690.933 281.557 690.865 281.625C690.729 281.693 688.218 283.052 685.231 284.683C682.245 286.313 677.832 288.827 675.457 290.254C672.131 292.292 670.977 292.7 670.502 292.021C668.533 289.031 668.397 289.235 678.308 283.12C683.602 279.927 688.286 277.277 688.761 277.209C689.168 277.209 689.847 278.16 690.254 279.383ZM658.284 282.712C658.148 282.984 653.668 286.449 648.373 290.458C640.499 296.233 638.395 297.524 637.649 296.845C637.105 296.437 636.698 295.893 636.698 295.622C636.698 295.214 647.694 286.245 653.396 282.033C655.84 280.266 656.179 280.198 657.265 281.15C657.944 281.761 658.351 282.441 658.284 282.712ZM690.526 290.662C688.897 291.817 675.049 299.63 674.574 299.63C674.303 299.63 673.828 298.679 673.42 297.592C672.606 295.214 671.927 295.757 683.534 289.167L691.34 284.683L691.544 287.197C691.747 289.031 691.408 289.982 690.526 290.662ZM662.899 286.789C663.917 287.944 663.985 288.284 663.171 288.759C661.542 289.778 651.156 297.048 647.355 299.766C643.35 302.756 643.079 302.824 642.128 300.989C641.518 299.766 642.264 299.019 649.391 293.719C658.419 286.993 660.591 285.43 661.202 285.43C661.406 285.362 662.153 285.974 662.899 286.789ZM667.583 292.632C668.262 293.651 668.533 294.534 668.126 294.67C667.786 294.806 663.239 297.796 658.012 301.261C648.577 307.648 648.577 307.716 647.219 306.357C645.862 304.998 645.862 304.998 647.83 303.503C652.31 300.106 665.546 290.866 665.954 290.798C666.225 290.798 666.972 291.613 667.583 292.632ZM689.847 296.777C689.032 298.883 687.607 300.242 682.652 303.571C679.19 305.881 676.203 307.783 675.932 307.783C675.592 307.783 675.389 306.628 675.389 305.202C675.389 302.688 675.389 302.688 683.059 298.475C687.2 296.165 690.729 294.195 690.797 294.195C690.865 294.195 690.458 295.35 689.847 296.777ZM671.18 299.494C671.859 301.397 671.723 301.533 666.972 304.386C664.325 306.017 659.98 308.871 657.265 310.637L652.378 313.898L651.36 311.996L650.342 310.094L659.641 303.843C664.732 300.446 669.28 297.592 669.755 297.592C670.162 297.592 670.773 298.475 671.18 299.494ZM640.567 305.134C639.549 305.745 630.114 313.627 628.553 315.257C624.209 319.606 622.58 320.693 621.901 319.809C621.018 318.79 625.023 314.306 633.915 306.153L638.938 301.601L640.364 303.027C641.721 304.386 641.721 304.522 640.567 305.134ZM671.995 309.89C670.162 311.452 655.636 320.217 655.365 319.877C655.229 319.809 654.957 318.858 654.686 317.907C654.279 316.276 654.754 315.801 661.949 311.181C666.157 308.463 670.23 305.881 670.977 305.405C672.199 304.658 672.402 304.726 672.809 306.696C673.217 308.327 673.013 309.074 671.995 309.89ZM644.436 310.841C642.536 312.268 633.508 319.606 629.503 323.003C627.535 324.565 626.992 324.769 626.109 324.09C625.227 323.275 625.363 322.935 626.992 321.168C628.01 320.081 632.218 316.276 636.359 312.743L643.758 306.357L644.979 307.919C646.201 309.482 646.133 309.482 644.436 310.841ZM649.188 313.491L650.274 315.189L642.4 321.168C638.124 324.43 633.847 327.759 632.897 328.506C631.472 329.661 631.132 329.661 630.25 328.778C629.367 327.895 629.571 327.487 632.082 324.973C634.255 322.867 647.355 312.132 647.966 311.86C648.034 311.86 648.577 312.607 649.188 313.491ZM671.995 315.053C671.723 316.14 671.248 317.431 671.045 317.975C670.637 318.926 666.7 321.78 659.641 326.468L657.062 328.099L656.994 326.468C656.926 325.517 656.858 324.43 656.79 323.954C656.722 323.342 670.773 313.762 672.47 313.287C672.538 313.219 672.334 314.034 671.995 315.053ZM652.717 320.149C653.057 321.304 652.785 321.984 651.564 322.867C650.681 323.478 646.608 326.468 642.536 329.525C635.748 334.553 635.001 334.961 634.051 333.942C633.033 332.922 633.236 332.583 636.019 330.069C640.432 326.06 650.478 318.654 651.428 318.654C651.835 318.654 652.446 319.334 652.717 320.149ZM654.279 327.283C654.279 329.661 653.939 330.069 650.07 332.583C647.762 334.078 643.961 336.727 641.653 338.426L637.513 341.619L637.038 339.785C636.63 338.29 636.97 337.679 639.21 335.844C641.721 333.738 653.804 324.837 654.211 324.769C654.279 324.769 654.347 325.924 654.279 327.283Z" fill="#0193CC"/>
</g>
<defs>
<clipPath id="clip0_122_2">
<rect width="803" height="816" fill="white"/>
</clipPath>
</defs>
</svg>
