<svg width="357" height="76" viewBox="0 0 357 76" fill="none" xmlns="http://www.w3.org/2000/svg">
<path fill-rule="evenodd" clip-rule="evenodd" d="M20 0C8.95431 0 0 8.95431 0 20V56C0 67.0457 8.9543 76 20 76H337C348.046 76 357 67.0457 357 56V20C357 8.95431 348.046 0 337 0H20Z" fill="url(#paint0_radial_10_767)"/>
<path fill-rule="evenodd" clip-rule="evenodd" d="M20 0C8.95431 0 0 8.95431 0 20V56C0 67.0457 8.9543 76 20 76H337C348.046 76 357 67.0457 357 56V20C357 8.95431 348.046 0 337 0H20Z" fill="url(#paint1_radial_10_767)"/>
<path fill-rule="evenodd" clip-rule="evenodd" d="M20 0C8.95431 0 0 8.95431 0 20V56C0 67.0457 8.9543 76 20 76H337C348.046 76 357 67.0457 357 56V20C357 8.95431 348.046 0 337 0H20Z" fill="url(#paint2_radial_10_767)"/>
<path fill-rule="evenodd" clip-rule="evenodd" d="M20 0C8.95431 0 0 8.95431 0 20V56C0 67.0457 8.9543 76 20 76H337C348.046 76 357 67.0457 357 56V20C357 8.95431 348.046 0 337 0H20Z" fill="url(#paint3_radial_10_767)"/>
<path fill-rule="evenodd" clip-rule="evenodd" d="M20 0C8.95431 0 0 8.95431 0 20V56C0 67.0457 8.9543 76 20 76H337C348.046 76 357 67.0457 357 56V20C357 8.95431 348.046 0 337 0H20Z" fill="url(#paint4_radial_10_767)"/>
<path fill-rule="evenodd" clip-rule="evenodd" d="M20 0C8.95431 0 0 8.95431 0 20V56C0 67.0457 8.9543 76 20 76H337C348.046 76 357 67.0457 357 56V20C357 8.95431 348.046 0 337 0H20Z" fill="url(#paint5_radial_10_767)"/>
<path fill-rule="evenodd" clip-rule="evenodd" d="M20 0C8.95431 0 0 8.95431 0 20V56C0 67.0457 8.9543 76 20 76H337C348.046 76 357 67.0457 357 56V20C357 8.95431 348.046 0 337 0H20Z" fill="url(#paint6_radial_10_767)"/>
<path fill-rule="evenodd" clip-rule="evenodd" d="M20 0C8.95431 0 0 8.95431 0 20V56C0 67.0457 8.9543 76 20 76H337C348.046 76 357 67.0457 357 56V20C357 8.95431 348.046 0 337 0H20Z" fill="url(#paint7_radial_10_767)"/>
<path fill-rule="evenodd" clip-rule="evenodd" d="M20 0C8.95431 0 0 8.95431 0 20V56C0 67.0457 8.9543 76 20 76H337C348.046 76 357 67.0457 357 56V20C357 8.95431 348.046 0 337 0H20Z" fill="url(#paint8_radial_10_767)" fill-opacity="0.2"/>
<path d="M10.048 32.512H14.72V38.464H20.576V32.512H25.248V48H20.576V41.536H14.72V48H10.048V32.512ZM33.7133 48.32C32.2626 48.32 31.1746 48.192 30.4493 47.936C29.7453 47.6587 29.2439 47.1787 28.9453 46.496C28.6679 45.792 28.5293 44.7467 28.5293 43.36C28.5293 42.1227 28.6786 41.152 28.9773 40.448C29.2973 39.744 29.7986 39.2427 30.4813 38.944C31.1853 38.624 32.1453 38.464 33.3613 38.464H38.6093V37.408C38.6093 36.7467 38.5133 36.256 38.3213 35.936C38.1506 35.616 37.8199 35.392 37.3293 35.264C36.8599 35.136 36.1453 35.072 35.1853 35.072C33.8626 35.072 32.0493 35.2 29.7453 35.456V32.512C31.4306 32.2987 33.4039 32.192 35.6653 32.192C37.6493 32.192 39.1746 32.3413 40.2413 32.64C41.3293 32.9387 42.1079 33.4507 42.5773 34.176C43.0466 34.9013 43.2812 35.9573 43.2812 37.344V48H38.7053V46.592C38.3426 47.2107 37.8519 47.648 37.2333 47.904C36.6146 48.1813 35.4413 48.32 33.7133 48.32ZM35.5373 45.408C36.4759 45.408 37.1479 45.376 37.5533 45.312C37.8519 45.2693 38.0546 45.2053 38.1613 45.12C38.2893 45.0347 38.3959 44.896 38.4813 44.704C38.5666 44.5547 38.6093 44.3307 38.6093 44.032V41.024H35.4093C34.6839 41.024 34.1719 41.0773 33.8733 41.184C33.5746 41.2693 33.3719 41.4613 33.2653 41.76C33.1586 42.0373 33.1053 42.5387 33.1053 43.264C33.1053 43.968 33.1586 44.4587 33.2653 44.736C33.3719 45.0133 33.5746 45.1947 33.8733 45.28C34.1933 45.3653 34.7479 45.408 35.5373 45.408ZM56.5438 41.152C56.1171 42.6453 54.5384 43.392 51.8078 43.392C49.9731 43.392 48.6824 43.008 47.9358 42.24C47.1891 41.4507 46.8158 40.2667 46.8158 38.688V32.512H51.3598V37.984C51.3598 38.624 51.4024 39.1147 51.4878 39.456C51.5731 39.7973 51.7651 40.0533 52.0638 40.224C52.3838 40.3947 52.8744 40.48 53.5358 40.48C54.4531 40.48 55.1251 40.3947 55.5518 40.224C55.9784 40.032 56.2451 39.7653 56.3518 39.424C56.4798 39.0827 56.5438 38.5707 56.5438 37.888V32.512H61.2158V48H56.5438V41.152ZM69.682 48.32C68.2313 48.32 67.1433 48.192 66.418 47.936C65.714 47.6587 65.2127 47.1787 64.914 46.496C64.6367 45.792 64.498 44.7467 64.498 43.36C64.498 42.1227 64.6473 41.152 64.946 40.448C65.266 39.744 65.7673 39.2427 66.45 38.944C67.154 38.624 68.114 38.464 69.33 38.464H74.578V37.408C74.578 36.7467 74.482 36.256 74.29 35.936C74.1193 35.616 73.7887 35.392 73.298 35.264C72.8287 35.136 72.114 35.072 71.154 35.072C69.8313 35.072 68.018 35.2 65.714 35.456V32.512C67.3993 32.2987 69.3727 32.192 71.634 32.192C73.618 32.192 75.1433 32.3413 76.21 32.64C77.298 32.9387 78.0767 33.4507 78.546 34.176C79.0153 34.9013 79.25 35.9573 79.25 37.344V48H74.674V46.592C74.3113 47.2107 73.8207 47.648 73.202 47.904C72.5833 48.1813 71.41 48.32 69.682 48.32ZM71.506 45.408C72.4447 45.408 73.1167 45.376 73.522 45.312C73.8207 45.2693 74.0233 45.2053 74.13 45.12C74.258 45.0347 74.3647 44.896 74.45 44.704C74.5353 44.5547 74.578 44.3307 74.578 44.032V41.024H71.378C70.6527 41.024 70.1407 41.0773 69.842 41.184C69.5433 41.2693 69.3407 41.4613 69.234 41.76C69.1273 42.0373 69.074 42.5387 69.074 43.264C69.074 43.968 69.1273 44.4587 69.234 44.736C69.3407 45.0133 69.5433 45.1947 69.842 45.28C70.162 45.3653 70.7167 45.408 71.506 45.408ZM87.0725 35.584H81.9525V32.512H96.8645V35.584H91.7445V48H87.0725V35.584ZM99.548 32.512H104.22V37.696H106.012C108.167 37.696 109.767 37.8133 110.812 38.048C111.879 38.2827 112.604 38.6987 112.988 39.296C113.393 39.8933 113.596 40.8107 113.596 42.048V43.872C113.596 45.344 112.988 46.4 111.772 47.04C110.556 47.68 108.668 48 106.108 48H99.548V32.512ZM105.884 45.088C106.737 45.088 107.367 45.0347 107.772 44.928C108.177 44.8 108.444 44.608 108.572 44.352C108.7 44.096 108.764 43.712 108.764 43.2V42.336C108.764 41.8667 108.679 41.5147 108.508 41.28C108.359 41.024 108.081 40.8533 107.676 40.768C107.292 40.6827 106.716 40.64 105.948 40.64H104.156V45.088H105.884ZM131.91 48.32C130.95 48.32 130.16 48.288 129.542 48.224C128.923 48.16 128.262 48.032 127.558 47.84C126.79 47.6267 126.171 47.328 125.702 46.944C125.232 46.5387 124.838 45.9733 124.518 45.248C124.198 44.544 124.038 43.6907 124.038 42.688V38.112C124.038 37.088 124.198 36.192 124.518 35.424C124.838 34.656 125.254 34.0587 125.766 33.632C126.214 33.2693 126.8 32.9707 127.526 32.736C128.272 32.48 128.998 32.32 129.702 32.256C130.512 32.2133 131.248 32.192 131.91 32.192C132.891 32.192 133.67 32.224 134.246 32.288C134.843 32.3307 135.494 32.4587 136.198 32.672C136.966 32.9067 137.584 33.2267 138.054 33.632C138.544 34.0373 138.96 34.6133 139.302 35.36C139.622 36.128 139.782 37.0453 139.782 38.112V42.688C139.782 43.648 139.622 44.4907 139.302 45.216C139.003 45.9413 138.608 46.5067 138.118 46.912C137.691 47.2747 137.104 47.5733 136.358 47.808C135.632 48.0213 134.918 48.16 134.214 48.224C133.574 48.288 132.806 48.32 131.91 48.32ZM131.91 45.408C132.784 45.408 133.446 45.344 133.894 45.216C134.342 45.0667 134.651 44.8427 134.822 44.544C135.014 44.2453 135.11 43.808 135.11 43.232V37.376C135.11 36.5227 134.886 35.9253 134.438 35.584C133.99 35.2427 133.147 35.072 131.91 35.072C130.672 35.072 129.83 35.2427 129.382 35.584C128.934 35.9253 128.71 36.5227 128.71 37.376V43.232C128.71 43.808 128.795 44.2453 128.966 44.544C129.158 44.8427 129.478 45.0667 129.926 45.216C130.374 45.344 131.035 45.408 131.91 45.408ZM151.007 48.32C149.172 48.32 147.711 48.192 146.623 47.936C145.556 47.68 144.714 47.104 144.095 46.208C143.498 45.2907 143.199 43.9147 143.199 42.08V35.584C143.199 33.6853 143.498 32.128 144.095 30.912C144.714 29.696 145.535 28.7467 146.559 28.064C147.604 27.3813 148.895 26.816 150.431 26.368L152.031 25.952C152.906 25.7387 153.866 25.4933 154.911 25.216C155.956 24.9173 156.852 24.6187 157.599 24.32V28.288C156.383 28.8853 154.314 29.504 151.391 30.144C150.132 30.4213 149.13 30.752 148.383 31.136C147.658 31.4987 147.114 32 146.751 32.64C146.388 33.28 146.207 34.1227 146.207 35.168V36.896H146.239C146.538 35.6373 147.156 34.72 148.095 34.144C149.034 33.568 150.506 33.28 152.511 33.28C154.26 33.28 155.583 33.5147 156.479 33.984C157.396 34.4533 158.015 35.1573 158.335 36.096C158.655 37.0347 158.815 38.3253 158.815 39.968V42.08C158.815 43.5947 158.602 44.8 158.175 45.696C157.748 46.5707 156.97 47.232 155.839 47.68C154.708 48.1067 153.098 48.32 151.007 48.32ZM151.071 45.408C152.01 45.408 152.692 45.3227 153.119 45.152C153.546 44.9813 153.823 44.7253 153.951 44.384C154.079 44.0427 154.143 43.5307 154.143 42.848V38.88C154.143 38.0907 154.079 37.5253 153.951 37.184C153.823 36.8213 153.556 36.5653 153.151 36.416C152.746 36.2667 152.084 36.192 151.167 36.192C150.207 36.192 149.492 36.288 149.023 36.48C148.575 36.6507 148.266 36.9387 148.095 37.344C147.946 37.728 147.871 38.2933 147.871 39.04V42.848C147.871 43.5093 147.946 44.0213 148.095 44.384C148.266 44.7253 148.575 44.9813 149.023 45.152C149.492 45.3227 150.175 45.408 151.071 45.408ZM170.006 48.32C169.196 48.32 168.556 48.2987 168.086 48.256C167.617 48.2347 167.041 48.1813 166.358 48.096C165.676 48.0107 165.11 47.8613 164.662 47.648C164.236 47.4347 163.788 47.1147 163.318 46.688C162.444 45.9627 162.006 44.7253 162.006 42.976V37.824C162.006 36.416 162.326 35.2427 162.966 34.304C163.201 33.9627 163.542 33.6533 163.99 33.376C164.46 33.0773 164.929 32.8427 165.398 32.672C165.782 32.544 166.294 32.4373 166.934 32.352C167.574 32.2667 168.14 32.2133 168.63 32.192H170.326C171.521 32.192 173.089 32.384 175.03 32.768V35.84C172.833 35.328 171.148 35.072 169.974 35.072C167.82 35.072 166.742 35.7973 166.742 37.248V42.944C166.742 44.5867 167.926 45.408 170.294 45.408C171.446 45.408 173.1 45.1733 175.254 44.704V47.776C173.313 48.1387 171.564 48.32 170.006 48.32ZM178.596 48.256C178.126 48.256 177.572 48.192 176.932 48.064V44.608C177.188 44.6507 177.454 44.672 177.732 44.672C178.521 44.672 179.161 44.4267 179.652 43.936C180.142 43.4453 180.516 42.4853 180.772 41.056C181.049 39.6267 181.188 37.5573 181.188 34.848V32.512H193.316V48H188.644V35.488H185.092V35.872C185.092 39.1787 184.804 41.7387 184.228 43.552C183.652 45.3653 182.894 46.6027 181.956 47.264C181.017 47.9253 179.897 48.256 178.596 48.256ZM205.199 48.32C199.716 48.32 196.975 46.6453 196.975 43.296V37.728C196.975 35.7867 197.594 34.3787 198.831 33.504C200.09 32.6293 202.02 32.192 204.623 32.192C207.076 32.192 208.868 32.6187 209.999 33.472C211.151 34.304 211.727 35.7227 211.727 37.728V41.504H201.679V42.912C201.679 43.808 201.999 44.448 202.639 44.832C203.279 45.216 204.431 45.408 206.095 45.408C207.631 45.408 209.359 45.184 211.279 44.736V47.712C209.38 48.1173 207.354 48.32 205.199 48.32ZM207.279 38.848V36.608C207.279 36.096 207.066 35.712 206.639 35.456C206.234 35.2 205.54 35.072 204.559 35.072C203.428 35.072 202.671 35.2 202.287 35.456C201.882 35.7333 201.679 36.1173 201.679 36.608V38.848H207.279ZM213.89 44.928H214.818C215.245 44.928 215.661 44.64 216.066 44.064C216.493 43.4667 216.855 42.4213 217.154 40.928C217.453 39.4133 217.602 37.3867 217.602 34.848V32.512H229.634V44.928H232.034V52.288H228.194V48H218.146V52.288H213.89V44.928ZM224.962 45.024V35.456H221.442V35.872C221.442 38.0267 221.282 39.8827 220.962 41.44C220.642 42.9973 220.183 44.192 219.586 45.024H224.962ZM242.285 48.32C241.325 48.32 240.535 48.288 239.917 48.224C239.298 48.16 238.637 48.032 237.933 47.84C237.165 47.6267 236.546 47.328 236.077 46.944C235.607 46.5387 235.213 45.9733 234.893 45.248C234.573 44.544 234.413 43.6907 234.413 42.688V38.112C234.413 37.088 234.573 36.192 234.893 35.424C235.213 34.656 235.629 34.0587 236.141 33.632C236.589 33.2693 237.175 32.9707 237.901 32.736C238.647 32.48 239.373 32.32 240.077 32.256C240.887 32.2133 241.623 32.192 242.285 32.192C243.266 32.192 244.045 32.224 244.621 32.288C245.218 32.3307 245.869 32.4587 246.573 32.672C247.341 32.9067 247.959 33.2267 248.429 33.632C248.919 34.0373 249.335 34.6133 249.677 35.36C249.997 36.128 250.157 37.0453 250.157 38.112V42.688C250.157 43.648 249.997 44.4907 249.677 45.216C249.378 45.9413 248.983 46.5067 248.493 46.912C248.066 47.2747 247.479 47.5733 246.733 47.808C246.007 48.0213 245.293 48.16 244.589 48.224C243.949 48.288 243.181 48.32 242.285 48.32ZM242.285 45.408C243.159 45.408 243.821 45.344 244.269 45.216C244.717 45.0667 245.026 44.8427 245.197 44.544C245.389 44.2453 245.485 43.808 245.485 43.232V37.376C245.485 36.5227 245.261 35.9253 244.813 35.584C244.365 35.2427 243.522 35.072 242.285 35.072C241.047 35.072 240.205 35.2427 239.757 35.584C239.309 35.9253 239.085 36.5227 239.085 37.376V43.232C239.085 43.808 239.17 44.2453 239.341 44.544C239.533 44.8427 239.853 45.0667 240.301 45.216C240.749 45.344 241.41 45.408 242.285 45.408ZM253.798 32.512H262.374C264.059 32.512 265.329 32.6507 266.182 32.928C267.035 33.2053 267.59 33.6107 267.846 34.144C268.123 34.656 268.262 35.3707 268.262 36.288V36.832C268.262 37.6427 268.027 38.2507 267.558 38.656C267.11 39.0613 266.385 39.3707 265.382 39.584V39.712C266.555 39.904 267.462 40.2773 268.102 40.832C268.742 41.3867 269.062 42.1013 269.062 42.976V43.904C269.062 45.312 268.539 46.3467 267.494 47.008C266.449 47.6693 264.731 48 262.342 48H253.798V32.512ZM260.742 38.624C261.574 38.624 262.193 38.5707 262.598 38.464C263.003 38.3573 263.281 38.1973 263.43 37.984C263.579 37.7493 263.654 37.408 263.654 36.96V36.576C263.654 36.1707 263.462 35.8613 263.078 35.648C262.715 35.4347 261.905 35.328 260.646 35.328H258.406V38.624H260.742ZM260.838 45.184C262.139 45.184 263.057 45.0453 263.59 44.768C264.123 44.4907 264.39 44.0533 264.39 43.456V42.88C264.39 42.4747 264.283 42.1653 264.07 41.952C263.878 41.7387 263.547 41.5893 263.078 41.504C262.609 41.4187 261.915 41.376 260.998 41.376H258.406V45.184H260.838ZM276.776 48.32C275.325 48.32 274.237 48.192 273.512 47.936C272.808 47.6587 272.306 47.1787 272.008 46.496C271.73 45.792 271.592 44.7467 271.592 43.36C271.592 42.1227 271.741 41.152 272.04 40.448C272.36 39.744 272.861 39.2427 273.544 38.944C274.248 38.624 275.208 38.464 276.424 38.464H281.672V37.408C281.672 36.7467 281.576 36.256 281.384 35.936C281.213 35.616 280.882 35.392 280.392 35.264C279.922 35.136 279.208 35.072 278.248 35.072C276.925 35.072 275.112 35.2 272.808 35.456V32.512C274.493 32.2987 276.466 32.192 278.728 32.192C280.712 32.192 282.237 32.3413 283.304 32.64C284.392 32.9387 285.17 33.4507 285.64 34.176C286.109 34.9013 286.344 35.9573 286.344 37.344V48H281.768V46.592C281.405 47.2107 280.914 47.648 280.296 47.904C279.677 48.1813 278.504 48.32 276.776 48.32ZM278.6 45.408C279.538 45.408 280.21 45.376 280.616 45.312C280.914 45.2693 281.117 45.2053 281.224 45.12C281.352 45.0347 281.458 44.896 281.544 44.704C281.629 44.5547 281.672 44.3307 281.672 44.032V41.024H278.472C277.746 41.024 277.234 41.0773 276.936 41.184C276.637 41.2693 276.434 41.4613 276.328 41.76C276.221 42.0373 276.168 42.5387 276.168 43.264C276.168 43.968 276.221 44.4587 276.328 44.736C276.434 45.0133 276.637 45.1947 276.936 45.28C277.256 45.3653 277.81 45.408 278.6 45.408ZM290.454 32.512H295.126V38.464H300.982V32.512H305.654V48H300.982V41.536H295.126V48H290.454V32.512ZM309.736 32.512H314.408V42.624L320.52 32.512H325.192V48H320.52V37.6L314.408 48H309.736V32.512ZM337.074 48.32C331.591 48.32 328.85 46.6453 328.85 43.296V37.728C328.85 35.7867 329.469 34.3787 330.706 33.504C331.965 32.6293 333.895 32.192 336.498 32.192C338.951 32.192 340.743 32.6187 341.874 33.472C343.026 34.304 343.602 35.7227 343.602 37.728V41.504H333.554V42.912C333.554 43.808 333.874 44.448 334.514 44.832C335.154 45.216 336.306 45.408 337.97 45.408C339.506 45.408 341.234 45.184 343.154 44.736V47.712C341.255 48.1173 339.229 48.32 337.074 48.32ZM339.154 38.848V36.608C339.154 36.096 338.941 35.712 338.514 35.456C338.109 35.2 337.415 35.072 336.434 35.072C335.303 35.072 334.546 35.2 334.162 35.456C333.757 35.7333 333.554 36.1173 333.554 36.608V38.848H339.154Z" fill="white"/>
<defs>
<radialGradient id="paint0_radial_10_767" cx="0" cy="0" r="1" gradientUnits="userSpaceOnUse" gradientTransform="translate(185.751 45.2953) rotate(-26.6264) scale(261.773 211.639)">
<stop offset="0.515264" stop-color="#0193CC" stop-opacity="0"/>
<stop offset="0.602083" stop-color="#0193CC"/>
</radialGradient>
<radialGradient id="paint1_radial_10_767" cx="0" cy="0" r="1" gradientUnits="userSpaceOnUse" gradientTransform="translate(117.993 102.153) rotate(-43.2087) scale(217.556 144.011)">
<stop stop-color="#6832DA"/>
<stop offset="1" stop-color="#6832DA" stop-opacity="0"/>
</radialGradient>
<radialGradient id="paint2_radial_10_767" cx="0" cy="0" r="1" gradientUnits="userSpaceOnUse" gradientTransform="translate(119.39 77.7278) rotate(-30.0784) scale(154.991 78.9959)">
<stop stop-color="#EE3683"/>
<stop offset="1" stop-color="#EE3683" stop-opacity="0"/>
</radialGradient>
<radialGradient id="paint3_radial_10_767" cx="0" cy="0" r="1" gradientUnits="userSpaceOnUse" gradientTransform="translate(155.714 126.177) rotate(-53.9685) scale(152.004 95.5043)">
<stop stop-color="#0193CC"/>
<stop offset="0.220161" stop-color="#0192CB" stop-opacity="0.56"/>
<stop offset="0.700569" stop-color="#0193CC" stop-opacity="0"/>
</radialGradient>
<radialGradient id="paint4_radial_10_767" cx="0" cy="0" r="1" gradientUnits="userSpaceOnUse" gradientTransform="translate(372.262 -7.15815) rotate(-147.457) scale(212.135 82.8417)">
<stop stop-color="#01CCCC"/>
<stop offset="0.318993" stop-color="#01CCCC" stop-opacity="0.61"/>
<stop offset="0.691526" stop-color="#01CCCC" stop-opacity="0"/>
</radialGradient>
<radialGradient id="paint5_radial_10_767" cx="0" cy="0" r="1" gradientUnits="userSpaceOnUse" gradientTransform="translate(180.862 -27.1783) rotate(0.374619) scale(183.721 42.5669)">
<stop stop-opacity="0.72"/>
<stop offset="0.446692" stop-opacity="0"/>
</radialGradient>
<radialGradient id="paint6_radial_10_767" cx="0" cy="0" r="1" gradientUnits="userSpaceOnUse" gradientTransform="translate(299.613 59.3095) rotate(-76.5407) scale(114.045 91.2276)">
<stop stop-opacity="0.72"/>
<stop offset="0.489507" stop-opacity="0"/>
</radialGradient>
<radialGradient id="paint7_radial_10_767" cx="0" cy="0" r="1" gradientUnits="userSpaceOnUse" gradientTransform="translate(229.061 21.6709) rotate(145.461) scale(228.114 216.647)">
<stop offset="0.581334" stop-color="#01CCCC" stop-opacity="0"/>
<stop offset="0.740077" stop-color="#01CCCC"/>
</radialGradient>
<radialGradient id="paint8_radial_10_767" cx="0" cy="0" r="1" gradientUnits="userSpaceOnUse" gradientTransform="translate(206.009 32.4821) rotate(121.421) scale(129.972 185.369)">
<stop stop-color="#531958"/>
<stop offset="1" stop-color="#7E287A"/>
</radialGradient>
</defs>
</svg>
