<svg width="199" height="77" viewBox="0 0 199 77" fill="none" xmlns="http://www.w3.org/2000/svg">
<circle cx="38.17" cy="38.17" r="38.17" fill="#0E78AF"/>
<path d="M53.7071 38.7071C54.0976 38.3166 54.0976 37.6834 53.7071 37.2929L47.3431 30.9289C46.9526 30.5384 46.3195 30.5384 45.9289 30.9289C45.5384 31.3195 45.5384 31.9526 45.9289 32.3431L51.5858 38L45.9289 43.6569C45.5384 44.0474 45.5384 44.6805 45.9289 45.0711C46.3195 45.4616 46.9526 45.4616 47.3431 45.0711L53.7071 38.7071ZM23 39H53V37H23V39Z" fill="white"/>
<path d="M93.344 43.256H99.888V51H98.448V44.312H94.784V51H93.344V43.256ZM102.482 43.256H103.922V44.088C104.04 43.4267 104.92 43.096 106.562 43.096C107.544 43.096 108.285 43.304 108.786 43.72C109.288 44.1253 109.538 44.648 109.538 45.288V48.472C109.538 48.9307 109.469 49.3307 109.33 49.672C109.202 50.0133 109.032 50.28 108.818 50.472C108.626 50.6533 108.36 50.7973 108.018 50.904C107.688 51.0107 107.357 51.08 107.026 51.112C106.728 51.144 106.365 51.16 105.938 51.16C105.469 51.16 105.037 51.1067 104.642 51C104.258 50.8827 104.018 50.7173 103.922 50.504V54.168H102.482V43.256ZM105.97 50.184C106.525 50.184 106.946 50.1467 107.234 50.072C107.533 49.9867 107.746 49.8373 107.874 49.624C108.002 49.4107 108.066 49.0853 108.066 48.648V45.8C108.066 45.32 108.002 44.9627 107.874 44.728C107.746 44.4933 107.533 44.3387 107.234 44.264C106.946 44.1787 106.52 44.136 105.954 44.136C105.389 44.136 104.957 44.1787 104.658 44.264C104.37 44.3387 104.162 44.4933 104.034 44.728C103.906 44.9627 103.842 45.32 103.842 45.8V48.648C103.842 49.0747 103.906 49.4 104.034 49.624C104.173 49.8373 104.392 49.9867 104.69 50.072C104.989 50.1467 105.416 50.184 105.97 50.184ZM115.028 51.16C114.345 51.16 113.833 51.1333 113.492 51.08C113.151 51.0373 112.809 50.936 112.468 50.776C112.116 50.616 111.86 50.36 111.7 50.008C111.54 49.6453 111.46 49.16 111.46 48.552V45.864C111.46 45.384 111.519 44.9627 111.636 44.6C111.753 44.2373 111.908 43.9547 112.1 43.752C112.26 43.5707 112.5 43.432 112.82 43.336C113.151 43.2293 113.487 43.16 113.828 43.128C114.212 43.1067 114.612 43.096 115.028 43.096C115.583 43.096 115.999 43.112 116.276 43.144C116.564 43.1653 116.868 43.2187 117.188 43.304C117.519 43.4 117.775 43.544 117.956 43.736C118.137 43.928 118.292 44.2053 118.42 44.568C118.537 44.9413 118.596 45.3733 118.596 45.864V48.552C118.596 49.4587 118.388 50.12 117.972 50.536C117.801 50.7067 117.556 50.84 117.236 50.936C116.916 51.032 116.585 51.096 116.244 51.128C115.839 51.1493 115.433 51.16 115.028 51.16ZM115.028 50.216C115.476 50.216 115.801 50.2053 116.004 50.184C116.207 50.1627 116.404 50.104 116.596 50.008C116.788 49.9227 116.921 49.784 116.996 49.592C117.081 49.3893 117.124 49.112 117.124 48.76V45.624C117.124 45.144 117.065 44.7973 116.948 44.584C116.831 44.36 116.628 44.216 116.34 44.152C116.063 44.0773 115.625 44.04 115.028 44.04C114.431 44.04 113.988 44.0773 113.7 44.152C113.423 44.216 113.225 44.36 113.108 44.584C112.991 44.7973 112.932 45.144 112.932 45.624V48.76C112.932 49.112 112.969 49.3893 113.044 49.592C113.129 49.784 113.268 49.9227 113.46 50.008C113.652 50.104 113.849 50.1627 114.052 50.184C114.255 50.2053 114.58 50.216 115.028 50.216ZM128.186 50.056V53.144H126.954V51H120.986V53.144H119.754V50.056H120.25C120.484 50.056 120.714 49.88 120.938 49.528C121.162 49.1653 121.348 48.5893 121.498 47.8C121.647 47 121.722 45.9867 121.722 44.76V43.256H127.098V50.056H128.186ZM125.658 50.056V44.2H122.986V45.32C122.986 46.4293 122.911 47.384 122.762 48.184C122.623 48.9733 122.362 49.5973 121.978 50.056H125.658ZM133.2 51.16C132.517 51.16 132.005 51.1333 131.664 51.08C131.323 51.0373 130.981 50.936 130.64 50.776C130.288 50.616 130.032 50.36 129.872 50.008C129.712 49.6453 129.632 49.16 129.632 48.552V45.864C129.632 45.384 129.691 44.9627 129.808 44.6C129.925 44.2373 130.08 43.9547 130.272 43.752C130.432 43.5707 130.672 43.432 130.992 43.336C131.323 43.2293 131.659 43.16 132 43.128C132.384 43.1067 132.784 43.096 133.2 43.096C133.755 43.096 134.171 43.112 134.448 43.144C134.736 43.1653 135.04 43.2187 135.36 43.304C135.691 43.4 135.947 43.544 136.128 43.736C136.309 43.928 136.464 44.2053 136.592 44.568C136.709 44.9413 136.768 45.3733 136.768 45.864V48.552C136.768 49.4587 136.56 50.12 136.144 50.536C135.973 50.7067 135.728 50.84 135.408 50.936C135.088 51.032 134.757 51.096 134.416 51.128C134.011 51.1493 133.605 51.16 133.2 51.16ZM133.2 50.216C133.648 50.216 133.973 50.2053 134.176 50.184C134.379 50.1627 134.576 50.104 134.768 50.008C134.96 49.9227 135.093 49.784 135.168 49.592C135.253 49.3893 135.296 49.112 135.296 48.76V45.624C135.296 45.144 135.237 44.7973 135.12 44.584C135.003 44.36 134.8 44.216 134.512 44.152C134.235 44.0773 133.797 44.04 133.2 44.04C132.603 44.04 132.16 44.0773 131.872 44.152C131.595 44.216 131.397 44.36 131.28 44.584C131.163 44.7973 131.104 45.144 131.104 45.624V48.76C131.104 49.112 131.141 49.3893 131.216 49.592C131.301 49.784 131.44 49.9227 131.632 50.008C131.824 50.104 132.021 50.1627 132.224 50.184C132.427 50.2053 132.752 50.216 133.2 50.216ZM138.71 51.016C138.55 51.016 138.395 51 138.246 50.968V49.736C138.395 49.768 138.544 49.784 138.694 49.784C139.152 49.784 139.515 49.4533 139.782 48.792C140.059 48.12 140.198 46.8827 140.198 45.08V43.256H145.462V51H144.022V44.2H141.478V45.32C141.478 47.08 141.27 48.472 140.854 49.496C140.438 50.5093 139.723 51.016 138.71 51.016ZM148.607 48.6C149.119 48.024 149.503 47.608 149.759 47.352C150.026 47.096 150.228 46.952 150.367 46.92L146.847 43.256H148.607L150.975 46.168C151.199 46.456 151.562 46.6 152.063 46.6V43.256H153.391V46.6C153.892 46.6 154.255 46.456 154.479 46.168L156.847 43.256H158.607L155.087 46.92C155.226 46.952 155.423 47.096 155.679 47.352C155.946 47.608 156.335 48.024 156.847 48.6L159.007 51H157.231L155.119 48.6C154.831 48.2693 154.548 48.008 154.271 47.816C154.068 47.6773 153.924 47.592 153.839 47.56C153.754 47.528 153.668 47.5173 153.583 47.528C153.498 47.528 153.434 47.528 153.391 47.528V51H152.063V47.528C152.02 47.528 151.951 47.528 151.855 47.528C151.759 47.5173 151.663 47.5333 151.567 47.576C151.471 47.6187 151.343 47.6987 151.183 47.816C150.906 48.008 150.623 48.2693 150.335 48.6L148.223 51H146.447L148.607 48.6ZM166.91 43.256V51H165.47V45.288L161.438 51H159.998V43.256H161.438V49.16L165.55 43.256H166.91ZM171.356 44.312H168.636V43.256H175.5V44.312H172.796V51H171.356V44.312ZM177.232 43.256H178.672V46.056H180.656C181.318 46.056 181.84 46.104 182.224 46.2C182.619 46.296 182.907 46.4667 183.088 46.712C183.27 46.9467 183.36 47.2827 183.36 47.72V49.32C183.36 50.44 182.416 51 180.528 51H177.232V43.256ZM180.432 50.072C180.742 50.072 181.062 50.0293 181.392 49.944C181.766 49.848 181.952 49.576 181.952 49.128V48.152C181.952 47.8427 181.91 47.608 181.824 47.448C181.75 47.288 181.606 47.176 181.392 47.112C181.19 47.048 180.88 47.016 180.464 47.016H178.656V50.072H180.432ZM96.528 70.16C95.8453 70.16 95.3333 70.1333 94.992 70.08C94.6507 70.0373 94.3093 69.936 93.968 69.776C93.616 69.616 93.36 69.36 93.2 69.008C93.04 68.6453 92.96 68.16 92.96 67.552V64.864C92.96 64.384 93.0187 63.9627 93.136 63.6C93.2533 63.2373 93.408 62.9547 93.6 62.752C93.76 62.5707 94 62.432 94.32 62.336C94.6507 62.2293 94.9867 62.16 95.328 62.128C95.712 62.1067 96.112 62.096 96.528 62.096C97.0827 62.096 97.4987 62.112 97.776 62.144C98.064 62.1653 98.368 62.2187 98.688 62.304C99.0187 62.4 99.2747 62.544 99.456 62.736C99.6373 62.928 99.792 63.2053 99.92 63.568C100.037 63.9413 100.096 64.3733 100.096 64.864V67.552C100.096 68.4587 99.888 69.12 99.472 69.536C99.3013 69.7067 99.056 69.84 98.736 69.936C98.416 70.032 98.0853 70.096 97.744 70.128C97.3387 70.1493 96.9333 70.16 96.528 70.16ZM96.528 69.216C96.976 69.216 97.3013 69.2053 97.504 69.184C97.7067 69.1627 97.904 69.104 98.096 69.008C98.288 68.9227 98.4213 68.784 98.496 68.592C98.5813 68.3893 98.624 68.112 98.624 67.76V64.624C98.624 64.144 98.5653 63.7973 98.448 63.584C98.3307 63.36 98.128 63.216 97.84 63.152C97.5627 63.0773 97.1253 63.04 96.528 63.04C95.9307 63.04 95.488 63.0773 95.2 63.152C94.9227 63.216 94.7253 63.36 94.608 63.584C94.4907 63.7973 94.432 64.144 94.432 64.624V67.76C94.432 68.112 94.4693 68.3893 94.544 68.592C94.6293 68.784 94.768 68.9227 94.96 69.008C95.152 69.104 95.3493 69.1627 95.552 69.184C95.7547 69.2053 96.08 69.216 96.528 69.216ZM105.718 70.16C104.758 70.16 104.032 70.0693 103.542 69.888C103.051 69.7067 102.71 69.392 102.518 68.944C102.326 68.4853 102.23 67.8133 102.23 66.928V63.808C102.23 62.6773 102.56 61.7653 103.222 61.072C103.894 60.368 104.934 59.84 106.342 59.488C107.483 59.168 108.342 58.896 108.918 58.672V60.032C108.096 60.3307 107.104 60.6347 105.942 60.944C105.291 61.072 104.784 61.2267 104.422 61.408C104.059 61.5893 103.803 61.808 103.654 62.064C103.515 62.3093 103.451 62.6187 103.462 62.992V64C103.707 63.5307 104.059 63.2053 104.518 63.024C104.976 62.832 105.568 62.736 106.294 62.736C107.307 62.736 108.048 62.944 108.518 63.36C108.998 63.7653 109.238 64.3787 109.238 65.2V67.504C109.238 68.1973 109.11 68.736 108.854 69.12C108.598 69.504 108.214 69.776 107.702 69.936C107.2 70.0853 106.539 70.16 105.718 70.16ZM105.75 69.216C106.315 69.216 106.736 69.1787 107.014 69.104C107.302 69.0187 107.504 68.864 107.622 68.64C107.75 68.4053 107.814 68.0533 107.814 67.584V65.216C107.814 64.8533 107.76 64.576 107.654 64.384C107.547 64.1813 107.36 64.0373 107.094 63.952C106.827 63.8667 106.448 63.824 105.958 63.824C105.2 63.824 104.619 63.9307 104.214 64.144C103.808 64.3573 103.611 64.6667 103.622 65.072L103.654 67.584C103.664 68.0533 103.728 68.4053 103.846 68.64C103.974 68.864 104.182 69.0187 104.47 69.104C104.758 69.1787 105.184 69.216 105.75 69.216ZM114.556 70.16C114.022 70.16 113.633 70.1493 113.388 70.128C113.153 70.1067 112.881 70.0533 112.572 69.968C112.241 69.8827 111.985 69.7547 111.804 69.584C111.622 69.4133 111.468 69.1627 111.34 68.832C111.212 68.512 111.148 68.112 111.148 67.632V64.784C111.148 63.92 111.313 63.3013 111.644 62.928C111.825 62.7147 112.006 62.5547 112.188 62.448C112.38 62.3307 112.625 62.2507 112.924 62.208C113.222 62.1653 113.489 62.1387 113.724 62.128C113.958 62.1067 114.289 62.096 114.716 62.096C115.452 62.096 116.188 62.176 116.924 62.336V63.392C116.07 63.1787 115.276 63.072 114.54 63.072C113.985 63.072 113.574 63.1147 113.308 63.2C113.052 63.2747 112.87 63.4187 112.764 63.632C112.668 63.8347 112.62 64.1493 112.62 64.576V67.744C112.62 68.1387 112.673 68.432 112.78 68.624C112.897 68.816 113.1 68.9547 113.388 69.04C113.686 69.1147 114.124 69.152 114.7 69.152C115.478 69.152 116.257 69.0507 117.036 68.848V69.936C116.31 70.0853 115.484 70.16 114.556 70.16ZM118.553 70.016C118.393 70.016 118.239 70 118.089 69.968V68.736C118.239 68.768 118.388 68.784 118.537 68.784C118.996 68.784 119.359 68.4533 119.625 67.792C119.903 67.12 120.041 65.8827 120.041 64.08V62.256H125.305V70H123.865V63.2H121.321V64.32C121.321 66.08 121.113 67.472 120.697 68.496C120.281 69.5093 119.567 70.016 118.553 70.016ZM131.059 70.16C128.691 70.16 127.507 69.3707 127.507 67.792V64.736C127.507 63.7973 127.774 63.1253 128.307 62.72C128.851 62.304 129.726 62.096 130.931 62.096C132.072 62.096 132.894 62.2933 133.395 62.688C133.907 63.0827 134.163 63.7653 134.163 64.736V66.448H128.963V67.616C128.963 68.1493 129.15 68.5333 129.523 68.768C129.896 69.0027 130.472 69.12 131.251 69.12C131.987 69.12 132.856 68.992 133.859 68.736V69.84C132.878 70.0533 131.944 70.16 131.059 70.16ZM132.723 65.504V64.288C132.723 63.8187 132.579 63.4987 132.291 63.328C132.014 63.1467 131.534 63.056 130.851 63.056C130.19 63.056 129.71 63.1467 129.411 63.328C129.112 63.4987 128.963 63.8187 128.963 64.288V65.504H132.723ZM143.701 69.056V72.144H142.469V70H136.501V72.144H135.269V69.056H135.765C136 69.056 136.229 68.88 136.453 68.528C136.677 68.1653 136.864 67.5893 137.013 66.8C137.163 66 137.237 64.9867 137.237 63.76V62.256H142.613V69.056H143.701ZM141.173 69.056V63.2H138.501V64.32C138.501 65.4293 138.427 66.384 138.277 67.184C138.139 67.9733 137.877 68.5973 137.493 69.056H141.173ZM148.716 70.16C148.033 70.16 147.521 70.1333 147.18 70.08C146.838 70.0373 146.497 69.936 146.156 69.776C145.804 69.616 145.548 69.36 145.388 69.008C145.228 68.6453 145.148 68.16 145.148 67.552V64.864C145.148 64.384 145.206 63.9627 145.324 63.6C145.441 63.2373 145.596 62.9547 145.788 62.752C145.948 62.5707 146.188 62.432 146.508 62.336C146.838 62.2293 147.174 62.16 147.516 62.128C147.9 62.1067 148.3 62.096 148.716 62.096C149.27 62.096 149.686 62.112 149.964 62.144C150.252 62.1653 150.556 62.2187 150.876 62.304C151.206 62.4 151.462 62.544 151.644 62.736C151.825 62.928 151.98 63.2053 152.108 63.568C152.225 63.9413 152.284 64.3733 152.284 64.864V67.552C152.284 68.4587 152.076 69.12 151.66 69.536C151.489 69.7067 151.244 69.84 150.924 69.936C150.604 70.032 150.273 70.096 149.932 70.128C149.526 70.1493 149.121 70.16 148.716 70.16ZM148.716 69.216C149.164 69.216 149.489 69.2053 149.692 69.184C149.894 69.1627 150.092 69.104 150.284 69.008C150.476 68.9227 150.609 68.784 150.684 68.592C150.769 68.3893 150.812 68.112 150.812 67.76V64.624C150.812 64.144 150.753 63.7973 150.636 63.584C150.518 63.36 150.316 63.216 150.028 63.152C149.75 63.0773 149.313 63.04 148.716 63.04C148.118 63.04 147.676 63.0773 147.388 63.152C147.11 63.216 146.913 63.36 146.796 63.584C146.678 63.7973 146.62 64.144 146.62 64.624V67.76C146.62 68.112 146.657 68.3893 146.732 68.592C146.817 68.784 146.956 68.9227 147.148 69.008C147.34 69.104 147.537 69.1627 147.74 69.184C147.942 69.2053 148.268 69.216 148.716 69.216ZM154.625 62.256H158.017C158.711 62.256 159.265 62.2987 159.681 62.384C160.097 62.4587 160.401 62.592 160.593 62.784C160.775 62.9653 160.892 63.152 160.945 63.344C160.999 63.536 161.025 63.8027 161.025 64.144V64.416C161.025 64.832 160.919 65.1413 160.705 65.344C160.492 65.5467 160.135 65.7013 159.633 65.808V65.872C160.871 66.0853 161.489 66.624 161.489 67.488V67.952C161.489 68.4747 161.383 68.8853 161.169 69.184C160.967 69.472 160.625 69.68 160.145 69.808C159.665 69.936 158.993 70 158.129 70H154.625V62.256ZM158.145 65.52C158.572 65.52 158.892 65.488 159.105 65.424C159.319 65.3493 159.463 65.2373 159.537 65.088C159.612 64.928 159.649 64.688 159.649 64.368V64.272C159.649 63.984 159.607 63.7707 159.521 63.632C159.447 63.4933 159.297 63.3973 159.073 63.344C158.86 63.28 158.535 63.248 158.097 63.248H156.065V65.52H158.145ZM158.209 68.96C158.711 68.96 159.089 68.928 159.345 68.864C159.601 68.8 159.777 68.6987 159.873 68.56C159.969 68.4107 160.017 68.192 160.017 67.904V67.392C160.017 67.1253 159.905 66.9013 159.681 66.72C159.447 66.5493 158.983 66.464 158.289 66.464H156.065V68.96H158.209ZM166.085 70.16C165.349 70.16 164.778 70.0907 164.373 69.952C163.978 69.8133 163.69 69.568 163.509 69.216C163.338 68.864 163.253 68.3573 163.253 67.696C163.253 67.1093 163.333 66.656 163.493 66.336C163.664 66.0053 163.946 65.7707 164.341 65.632C164.746 65.4933 165.317 65.424 166.053 65.424H168.373V64.192C168.373 63.904 168.314 63.6853 168.197 63.536C168.09 63.376 167.904 63.264 167.637 63.2C167.381 63.136 167.002 63.104 166.501 63.104C165.701 63.104 164.816 63.168 163.845 63.296V62.24C164.901 62.144 165.856 62.096 166.709 62.096C167.605 62.096 168.266 62.1653 168.693 62.304C169.12 62.432 169.413 62.6613 169.573 62.992C169.733 63.3227 169.813 63.8347 169.813 64.528V70H168.421V69.264C168.304 69.8613 167.525 70.16 166.085 70.16ZM166.325 69.216C166.848 69.216 167.29 69.1787 167.653 69.104C168.133 69.008 168.373 68.784 168.373 68.432V66.32H166.149C165.69 66.32 165.36 66.3573 165.157 66.432C164.954 66.496 164.821 66.624 164.757 66.816C164.693 67.008 164.661 67.3173 164.661 67.744C164.661 68.128 164.698 68.4267 164.773 68.64C164.848 68.8427 164.981 68.992 165.173 69.088C165.365 69.1733 165.653 69.216 166.037 69.216H166.325ZM172.311 62.256H173.751V65.472H177.559V62.256H178.999V70H177.559V66.528H173.751V70H172.311V62.256ZM188.41 62.256V70H186.97V64.288L182.938 70H181.498V62.256H182.938V68.16L187.05 62.256H188.41ZM194.168 70.16C191.8 70.16 190.616 69.3707 190.616 67.792V64.736C190.616 63.7973 190.883 63.1253 191.416 62.72C191.96 62.304 192.835 62.096 194.04 62.096C195.182 62.096 196.003 62.2933 196.504 62.688C197.016 63.0827 197.272 63.7653 197.272 64.736V66.448H192.072V67.616C192.072 68.1493 192.259 68.5333 192.632 68.768C193.006 69.0027 193.582 69.12 194.36 69.12C195.096 69.12 195.966 68.992 196.968 68.736V69.84C195.987 70.0533 195.054 70.16 194.168 70.16ZM195.832 65.504V64.288C195.832 63.8187 195.688 63.4987 195.4 63.328C195.123 63.1467 194.643 63.056 193.96 63.056C193.299 63.056 192.819 63.1467 192.52 63.328C192.222 63.4987 192.072 63.8187 192.072 64.288V65.504H195.832Z" fill="white"/>
</svg>
