<svg width="215" height="24" viewBox="0 0 215 24" fill="none" xmlns="http://www.w3.org/2000/svg">
<path d="M6.428 18.312C5.508 18.312 4.624 18.168 3.776 17.88C2.928 17.592 2.188 17.18 1.556 16.644C0.924 16.1 0.472 15.456 0.2 14.712L2.54 13.836C2.676 14.22 2.936 14.564 3.32 14.868C3.712 15.164 4.176 15.396 4.712 15.564C5.256 15.732 5.828 15.816 6.428 15.816C7.068 15.816 7.668 15.712 8.228 15.504C8.796 15.296 9.252 15.008 9.596 14.64C9.948 14.272 10.124 13.84 10.124 13.344C10.124 12.832 9.94 12.412 9.572 12.084C9.212 11.756 8.748 11.496 8.18 11.304C7.62 11.112 7.036 10.968 6.428 10.872C5.252 10.68 4.196 10.4 3.26 10.032C2.332 9.664 1.596 9.148 1.052 8.484C0.516 7.82 0.248 6.956 0.248 5.892C0.248 4.892 0.532 4.02 1.1 3.276C1.676 2.532 2.432 1.956 3.368 1.548C4.312 1.132 5.332 0.923999 6.428 0.923999C7.332 0.923999 8.204 1.068 9.044 1.356C9.892 1.636 10.636 2.048 11.276 2.592C11.924 3.128 12.388 3.78 12.668 4.548L10.304 5.4C10.168 5.008 9.908 4.668 9.524 4.38C9.14 4.084 8.676 3.852 8.132 3.684C7.596 3.516 7.028 3.432 6.428 3.432C5.788 3.424 5.188 3.528 4.628 3.744C4.076 3.952 3.624 4.24 3.272 4.608C2.92 4.976 2.744 5.404 2.744 5.892C2.744 6.492 2.908 6.948 3.236 7.26C3.564 7.572 4.004 7.804 4.556 7.956C5.116 8.1 5.74 8.232 6.428 8.352C7.532 8.528 8.552 8.82 9.488 9.228C10.432 9.636 11.188 10.18 11.756 10.86C12.332 11.532 12.62 12.36 12.62 13.344C12.62 14.336 12.332 15.208 11.756 15.96C11.188 16.704 10.432 17.284 9.488 17.7C8.552 18.108 7.532 18.312 6.428 18.312ZM20.2747 18.312C19.1707 18.312 18.1627 18.028 17.2507 17.46C16.3467 16.892 15.6227 16.132 15.0787 15.18C14.5427 14.22 14.2747 13.16 14.2747 12C14.2747 11.12 14.4307 10.3 14.7427 9.54C15.0547 8.772 15.4827 8.1 16.0267 7.524C16.5787 6.94 17.2187 6.484 17.9467 6.156C18.6747 5.828 19.4507 5.664 20.2747 5.664C21.1947 5.664 22.0387 5.856 22.8067 6.24C23.5747 6.616 24.2307 7.14 24.7747 7.812C25.3187 8.476 25.7187 9.244 25.9747 10.116C26.2307 10.98 26.3067 11.9 26.2027 12.876H16.9507C17.0547 13.428 17.2547 13.928 17.5507 14.376C17.8547 14.816 18.2387 15.164 18.7027 15.42C19.1747 15.676 19.6987 15.808 20.2747 15.816C20.8827 15.816 21.4347 15.664 21.9307 15.36C22.4347 15.056 22.8467 14.636 23.1667 14.1L25.6987 14.688C25.2187 15.752 24.4947 16.624 23.5267 17.304C22.5587 17.976 21.4747 18.312 20.2747 18.312ZM16.8667 10.968H23.6827C23.6027 10.392 23.3987 9.872 23.0707 9.408C22.7507 8.936 22.3467 8.564 21.8587 8.292C21.3787 8.012 20.8507 7.872 20.2747 7.872C19.7067 7.872 19.1787 8.008 18.6907 8.28C18.2107 8.552 17.8107 8.924 17.4907 9.396C17.1787 9.86 16.9707 10.384 16.8667 10.968ZM36.0026 14.592L38.2346 15.804C37.6906 16.564 36.9986 17.172 36.1586 17.628C35.3266 18.084 34.4226 18.312 33.4466 18.312C32.3426 18.312 31.3346 18.028 30.4226 17.46C29.5186 16.892 28.7946 16.132 28.2506 15.18C27.7146 14.22 27.4466 13.16 27.4466 12C27.4466 11.12 27.6026 10.3 27.9146 9.54C28.2266 8.772 28.6546 8.1 29.1986 7.524C29.7506 6.94 30.3906 6.484 31.1186 6.156C31.8466 5.828 32.6226 5.664 33.4466 5.664C34.4226 5.664 35.3266 5.892 36.1586 6.348C36.9986 6.804 37.6906 7.416 38.2346 8.184L36.0026 9.396C35.6666 8.996 35.2746 8.692 34.8266 8.484C34.3786 8.268 33.9186 8.16 33.4466 8.16C32.7906 8.16 32.1946 8.34 31.6586 8.7C31.1306 9.052 30.7106 9.52 30.3986 10.104C30.0946 10.68 29.9426 11.312 29.9426 12C29.9426 12.68 30.0986 13.312 30.4106 13.896C30.7226 14.472 31.1426 14.936 31.6706 15.288C32.2066 15.64 32.7986 15.816 33.4466 15.816C33.9426 15.816 34.4146 15.704 34.8626 15.48C35.3106 15.256 35.6906 14.96 36.0026 14.592ZM50.8963 10.476V18H48.4003V11.088C48.4003 10.552 48.2683 10.064 48.0043 9.624C47.7483 9.184 47.4003 8.836 46.9603 8.58C46.5283 8.316 46.0403 8.184 45.4963 8.184C44.9683 8.184 44.4843 8.316 44.0443 8.58C43.6043 8.836 43.2523 9.184 42.9883 9.624C42.7243 10.064 42.5923 10.552 42.5923 11.088V18H40.0963V-1.43051e-06H42.5923V7.272C43.0083 6.776 43.5203 6.384 44.1283 6.096C44.7363 5.808 45.3923 5.664 46.0963 5.664C46.9843 5.664 47.7923 5.88 48.5203 6.312C49.2483 6.744 49.8243 7.324 50.2483 8.052C50.6803 8.78 50.8963 9.588 50.8963 10.476ZM58.3372 18.312C57.2332 18.312 56.2252 18.028 55.3132 17.46C54.4092 16.892 53.6852 16.132 53.1412 15.18C52.6052 14.22 52.3372 13.16 52.3372 12C52.3372 11.12 52.4932 10.3 52.8052 9.54C53.1172 8.772 53.5452 8.1 54.0892 7.524C54.6412 6.94 55.2812 6.484 56.0092 6.156C56.7372 5.828 57.5132 5.664 58.3372 5.664C59.2572 5.664 60.1012 5.856 60.8692 6.24C61.6372 6.616 62.2932 7.14 62.8372 7.812C63.3812 8.476 63.7812 9.244 64.0372 10.116C64.2932 10.98 64.3692 11.9 64.2652 12.876H55.0132C55.1172 13.428 55.3172 13.928 55.6132 14.376C55.9172 14.816 56.3012 15.164 56.7652 15.42C57.2372 15.676 57.7612 15.808 58.3372 15.816C58.9452 15.816 59.4972 15.664 59.9932 15.36C60.4972 15.056 60.9092 14.636 61.2292 14.1L63.7612 14.688C63.2812 15.752 62.5572 16.624 61.5892 17.304C60.6212 17.976 59.5372 18.312 58.3372 18.312ZM54.9292 10.968H61.7452C61.6652 10.392 61.4612 9.872 61.1332 9.408C60.8132 8.936 60.4092 8.564 59.9212 8.292C59.4412 8.012 58.9132 7.872 58.3372 7.872C57.7692 7.872 57.2412 8.008 56.7532 8.28C56.2732 8.552 55.8732 8.924 55.5532 9.396C55.2412 9.86 55.0332 10.384 54.9292 10.968ZM77.0525 10.476V18H74.5565V11.088C74.5565 10.552 74.4245 10.064 74.1605 9.624C73.9045 9.184 73.5565 8.836 73.1165 8.58C72.6845 8.316 72.1965 8.184 71.6525 8.184C71.1245 8.184 70.6405 8.316 70.2005 8.58C69.7605 8.836 69.4085 9.184 69.1445 9.624C68.8805 10.064 68.7485 10.552 68.7485 11.088V18H66.2525V6H68.7485V7.272C69.1645 6.776 69.6765 6.384 70.2845 6.096C70.8925 5.808 71.5485 5.664 72.2525 5.664C73.1405 5.664 73.9485 5.88 74.6765 6.312C75.4045 6.744 75.9805 7.324 76.4045 8.052C76.8365 8.78 77.0525 9.588 77.0525 10.476ZM84.4934 18.312C83.3894 18.312 82.3814 18.028 81.4694 17.46C80.5654 16.892 79.8414 16.132 79.2974 15.18C78.7614 14.22 78.4934 13.16 78.4934 12C78.4934 11.12 78.6494 10.3 78.9614 9.54C79.2734 8.772 79.7014 8.1 80.2454 7.524C80.7974 6.94 81.4374 6.484 82.1654 6.156C82.8934 5.828 83.6694 5.664 84.4934 5.664C85.5974 5.664 86.6014 5.948 87.5054 6.516C88.4174 7.084 89.1414 7.848 89.6774 8.808C90.2214 9.768 90.4934 10.832 90.4934 12C90.4934 12.872 90.3374 13.688 90.0254 14.448C89.7134 15.208 89.2814 15.88 88.7294 16.464C88.1854 17.04 87.5494 17.492 86.8214 17.82C86.1014 18.148 85.3254 18.312 84.4934 18.312ZM84.4934 15.816C85.1574 15.816 85.7534 15.64 86.2814 15.288C86.8094 14.936 87.2254 14.472 87.5294 13.896C87.8414 13.312 87.9974 12.68 87.9974 12C87.9974 11.304 87.8374 10.664 87.5174 10.08C87.2054 9.496 86.7854 9.032 86.2574 8.688C85.7294 8.336 85.1414 8.16 84.4934 8.16C83.8374 8.16 83.2414 8.336 82.7054 8.688C82.1774 9.04 81.7574 9.508 81.4454 10.092C81.1414 10.676 80.9894 11.312 80.9894 12C80.9894 12.712 81.1494 13.356 81.4694 13.932C81.7894 14.508 82.2134 14.968 82.7414 15.312C83.2774 15.648 83.8614 15.816 84.4934 15.816ZM98.7337 18H95.5297L91.1497 5.976H93.8137L97.1257 15.12L100.45 5.976H103.102L98.7337 18ZM117.666 18.312C116.322 18.312 115.15 17.984 114.15 17.328C113.158 16.672 112.386 15.792 111.834 14.688C111.29 13.576 111.018 12.344 111.018 10.992V1.2H113.514V10.992C113.514 11.872 113.674 12.68 113.994 13.416C114.322 14.144 114.794 14.728 115.41 15.168C116.034 15.6 116.786 15.816 117.666 15.816C118.57 15.816 119.33 15.6 119.946 15.168C120.562 14.728 121.026 14.144 121.338 13.416C121.658 12.68 121.818 11.872 121.818 10.992V1.2H124.314V10.992C124.314 12.008 124.158 12.96 123.846 13.848C123.534 14.728 123.086 15.504 122.502 16.176C121.918 16.848 121.218 17.372 120.402 17.748C119.586 18.124 118.674 18.312 117.666 18.312ZM137.685 10.476V18H135.189V11.088C135.189 10.552 135.057 10.064 134.793 9.624C134.537 9.184 134.189 8.836 133.749 8.58C133.317 8.316 132.829 8.184 132.285 8.184C131.757 8.184 131.273 8.316 130.833 8.58C130.393 8.836 130.041 9.184 129.777 9.624C129.513 10.064 129.381 10.552 129.381 11.088V18H126.885V6H129.381V7.272C129.797 6.776 130.309 6.384 130.917 6.096C131.525 5.808 132.181 5.664 132.885 5.664C133.773 5.664 134.581 5.88 135.309 6.312C136.037 6.744 136.613 7.324 137.037 8.052C137.469 8.78 137.685 9.588 137.685 10.476ZM140.081 6H142.577V18H140.081V6ZM141.353 4.26C140.969 4.26 140.649 4.136 140.393 3.888C140.137 3.64 140.009 3.328 140.009 2.952C140.009 2.584 140.137 2.276 140.393 2.028C140.649 1.772 140.965 1.644 141.341 1.644C141.709 1.644 142.021 1.772 142.277 2.028C142.533 2.276 142.661 2.584 142.661 2.952C142.661 3.328 142.533 3.64 142.277 3.888C142.029 4.136 141.721 4.26 141.353 4.26ZM152.007 18H148.803L144.423 5.976H147.087L150.399 15.12L153.723 5.976H156.375L152.007 18ZM163.033 18.312C161.929 18.312 160.921 18.028 160.009 17.46C159.105 16.892 158.381 16.132 157.837 15.18C157.301 14.22 157.033 13.16 157.033 12C157.033 11.12 157.189 10.3 157.501 9.54C157.813 8.772 158.241 8.1 158.785 7.524C159.337 6.94 159.977 6.484 160.705 6.156C161.433 5.828 162.209 5.664 163.033 5.664C163.953 5.664 164.797 5.856 165.565 6.24C166.333 6.616 166.989 7.14 167.533 7.812C168.077 8.476 168.477 9.244 168.733 10.116C168.989 10.98 169.065 11.9 168.961 12.876H159.709C159.813 13.428 160.013 13.928 160.309 14.376C160.613 14.816 160.997 15.164 161.461 15.42C161.933 15.676 162.457 15.808 163.033 15.816C163.641 15.816 164.193 15.664 164.689 15.36C165.193 15.056 165.605 14.636 165.925 14.1L168.457 14.688C167.977 15.752 167.253 16.624 166.285 17.304C165.317 17.976 164.233 18.312 163.033 18.312ZM159.625 10.968H166.441C166.361 10.392 166.157 9.872 165.829 9.408C165.509 8.936 165.105 8.564 164.617 8.292C164.137 8.012 163.609 7.872 163.033 7.872C162.465 7.872 161.937 8.008 161.449 8.28C160.969 8.552 160.569 8.924 160.249 9.396C159.937 9.86 159.729 10.384 159.625 10.968ZM170.948 18V6H173.444V7.272C173.86 6.776 174.372 6.384 174.98 6.096C175.588 5.808 176.244 5.664 176.948 5.664C177.396 5.664 177.84 5.724 178.28 5.844L177.284 8.364C176.972 8.244 176.66 8.184 176.348 8.184C175.82 8.184 175.336 8.316 174.896 8.58C174.456 8.836 174.104 9.184 173.84 9.624C173.576 10.064 173.444 10.552 173.444 11.088V18H170.948ZM183.267 18.228C182.635 18.188 182.019 18.06 181.419 17.844C180.819 17.628 180.291 17.336 179.835 16.968C179.387 16.592 179.051 16.152 178.827 15.648L180.951 14.736C181.055 14.952 181.235 15.164 181.491 15.372C181.755 15.58 182.063 15.752 182.415 15.888C182.767 16.016 183.135 16.08 183.519 16.08C183.895 16.08 184.243 16.028 184.563 15.924C184.891 15.812 185.159 15.644 185.367 15.42C185.575 15.196 185.679 14.928 185.679 14.616C185.679 14.264 185.559 13.992 185.319 13.8C185.087 13.6 184.795 13.448 184.443 13.344C184.091 13.24 183.739 13.14 183.387 13.044C182.603 12.868 181.883 12.628 181.227 12.324C180.579 12.012 180.063 11.616 179.679 11.136C179.295 10.648 179.103 10.052 179.103 9.348C179.103 8.58 179.311 7.916 179.727 7.356C180.143 6.788 180.687 6.352 181.359 6.048C182.039 5.744 182.763 5.592 183.531 5.592C184.491 5.592 185.371 5.796 186.171 6.204C186.971 6.612 187.583 7.172 188.007 7.884L186.027 9.06C185.907 8.82 185.727 8.604 185.487 8.412C185.247 8.22 184.975 8.068 184.671 7.956C184.367 7.836 184.051 7.768 183.723 7.752C183.315 7.736 182.935 7.784 182.583 7.896C182.239 8 181.963 8.168 181.755 8.4C181.547 8.632 181.443 8.928 181.443 9.288C181.443 9.64 181.567 9.904 181.815 10.08C182.063 10.248 182.375 10.384 182.751 10.488C183.135 10.592 183.527 10.708 183.927 10.836C184.639 11.06 185.307 11.336 185.931 11.664C186.555 11.984 187.059 12.38 187.443 12.852C187.827 13.324 188.011 13.9 187.995 14.58C187.995 15.332 187.767 15.992 187.311 16.56C186.863 17.128 186.279 17.56 185.559 17.856C184.839 18.152 184.075 18.276 183.267 18.228ZM189.838 6H192.334V18H189.838V6ZM191.11 4.26C190.726 4.26 190.406 4.136 190.15 3.888C189.894 3.64 189.766 3.328 189.766 2.952C189.766 2.584 189.894 2.276 190.15 2.028C190.406 1.772 190.722 1.644 191.098 1.644C191.466 1.644 191.778 1.772 192.034 2.028C192.29 2.276 192.418 2.584 192.418 2.952C192.418 3.328 192.29 3.64 192.034 3.888C191.786 4.136 191.478 4.26 191.11 4.26ZM201.542 8.496H199.022L199.01 18H196.514L196.526 8.496H194.618V6H196.526L196.514 2.232H199.01L199.022 6H201.542V8.496ZM211.535 6H214.199L207.623 24H204.971L207.143 18L202.835 6H205.559L208.391 14.58L211.535 6Z" fill="white"/>
</svg>
